<?xml version="1.0" standalone="no"?>
<!DOCTYPE svg PUBLIC "-//W3C//DTD SVG 20010904//EN"
 "http://www.w3.org/TR/2001/REC-SVG-20010904/DTD/svg10.dtd">
<svg version="1.0" xmlns="http://www.w3.org/2000/svg"
 width="300.000000pt" height="201.000000pt" viewBox="0 0 300.000000 201.000000"
 preserveAspectRatio="xMidYMid meet">
<metadata>
Created by potrace 1.10, written by Peter Selinger 2001-2011
</metadata>
<g transform="translate(0.000000,201.000000) scale(0.050000,-0.050000)"
fill="#000000" stroke="none">
<path d="M2830 3700 c-22 -10 -31 -18 -20 -19 11 -1 7 -10 -10 -21 -22 -14
-23 -19 -4 -20 15 0 21 -9 14 -20 -16 -26 25 -100 56 -100 15 0 16 6 4 15 -11
8 -20 33 -20 55 0 52 110 67 156 21 36 -36 77 -40 107 -10 15 15 44 1 97 -50
42 -39 83 -71 91 -71 9 0 31 -6 50 -13 27 -11 31 -5 20 30 -11 34 -6 43 27 43
27 0 46 -17 54 -50 7 -28 27 -60 45 -72 36 -22 -36 -12 -108 15 -24 10 -31 6
-21 -10 8 -12 5 -23 -7 -23 -12 0 -27 13 -34 30 -6 16 -19 25 -29 19 -10 -6
-18 -1 -18 12 0 13 -13 18 -30 12 -16 -7 -30 -4 -30 5 0 9 -22 12 -49 7 -26
-5 -69 5 -94 23 -25 18 -60 31 -76 30 -21 -1 -23 -4 -6 -11 14 -6 20 -19 14
-29 -6 -10 0 -18 14 -18 14 0 -10 -18 -53 -40 -43 -22 -90 -40 -104 -40 -14 0
-26 -8 -26 -19 0 -10 -19 -15 -43 -10 -23 4 -57 -1 -75 -11 -25 -15 -21 -19
24 -19 30 -1 78 -15 105 -33 27 -18 62 -27 77 -21 16 6 40 -2 53 -18 32 -39
-17 -57 -85 -31 -40 15 -70 10 -135 -22 -58 -29 -90 -35 -104 -21 -15 15 -8
25 21 34 53 17 54 43 2 71 -87 46 -1 120 141 120 38 0 58 12 65 40 7 29 0 40
-24 40 -19 0 -56 20 -82 44 -30 28 -50 36 -55 21 -4 -13 -39 -30 -77 -37 -37
-7 -74 -21 -80 -32 -23 -36 5 -35 80 3 76 39 132 36 132 -6 0 -46 -90 -80
-205 -77 -72 2 -115 -5 -115 -18 0 -12 -14 -17 -31 -10 -18 6 -26 3 -19 -8 7
-11 -3 -20 -21 -20 -20 0 -29 11 -22 28 6 16 -5 34 -23 42 -32 12 -31 14 1 33
20 11 31 28 24 38 -6 11 -2 19 9 19 11 0 25 -9 32 -20 7 -12 21 -15 31 -9 11
6 19 2 19 -10 0 -35 51 -24 90 19 20 22 48 40 62 40 14 0 31 9 38 20 8 13 -5
13 -40 0 -29 -11 -72 -20 -96 -19 -75 1 81 59 169 63 42 1 77 11 77 20 0 10
-8 13 -19 7 -10 -6 -24 -3 -30 7 -19 31 -194 7 -250 -34 -28 -21 -74 -45 -101
-54 -110 -35 -333 -277 -283 -308 10 -7 23 -34 28 -62 10 -49 10 -49 24 -7 8
24 34 49 58 55 36 10 38 15 13 33 -25 17 -23 20 10 14 22 -4 38 -18 35 -31 -3
-13 6 -24 20 -25 14 0 9 -9 -10 -21 -19 -11 -43 -15 -53 -9 -19 12 -51 -80
-45 -129 3 -22 -2 -21 -18 5 -12 20 -29 31 -39 25 -30 -19 -62 60 -35 87 17
17 17 23 0 23 -86 0 -129 -260 -94 -570 36 -322 89 -527 89 -345 0 40 8 77 17
83 10 6 15 106 13 221 -3 165 2 211 22 211 15 0 42 22 60 50 18 27 40 45 50
39 10 -6 18 0 18 15 1 77 207 93 216 16 10 -82 47 -160 76 -160 16 0 28 -9 28
-20 0 -11 14 -20 30 -20 17 0 30 18 30 41 0 38 3 39 60 9 34 -18 60 -22 60
-11 0 12 36 21 80 21 68 0 118 35 60 43 -40 4 -50 8 -75 23 -14 9 -25 10 -25
3 0 -7 -17 8 -38 34 -47 58 -39 75 33 67 55 -7 135 -24 135 -30 0 -2 16 -6 36
-10 29 -5 32 -1 13 22 -16 18 -17 28 -3 28 12 0 27 -9 34 -20 7 -12 21 -15 32
-9 10 6 24 -5 32 -25 39 -107 130 -152 167 -83 19 34 27 37 41 15 15 -23 21
-23 35 -1 14 21 20 21 29 -4 13 -34 78 -31 90 4 11 34 39 28 84 -17 41 -41 57
-113 20 -90 -22 13 -22 13 -27 -90 -3 -62 3 -71 50 -76 61 -7 87 -69 54 -130
-32 -60 14 -206 54 -173 23 19 29 17 29 -11 0 -25 11 -32 40 -24 30 8 40 2 35
-23 -3 -22 12 -35 45 -40 46 -6 79 -34 80 -66 0 -8 -34 3 -75 23 -89 43 -125
25 -125 -66 0 -33 -12 -75 -27 -92 -14 -18 -37 -71 -51 -118 -19 -68 -38 -91
-83 -107 -54 -19 -69 -39 -61 -84 2 -9 -15 -10 -37 -3 -40 12 -60 -20 -21 -33
12 -4 8 -29 -9 -62 -16 -30 -22 -55 -15 -55 8 0 1 -9 -16 -20 -26 -16 -26 -19
-1 -20 20 0 23 -6 8 -21 -24 -24 -11 -119 17 -119 10 0 14 7 9 15 -5 8 12 15
39 15 73 0 60 -27 -77 -155 -127 -119 -229 -187 -250 -167 -6 7 -25 0 -41 -13
-22 -18 -33 -18 -38 -3 -7 22 -93 22 -291 -2 -145 -17 -298 86 -263 177 12 33
48 46 48 18 0 -8 70 -17 155 -19 85 -2 209 -8 275 -12 146 -10 169 -3 155 49
-7 28 -15 33 -26 16 -17 -28 -139 47 -139 85 0 12 -21 15 -55 6 -30 -8 -112
-13 -181 -12 -119 2 -125 0 -105 -36 28 -52 28 -52 -30 -55 -37 -2 -49 5 -41
25 6 15 4 26 -4 24 -30 -7 -125 52 -154 97 -53 81 -125 303 -107 331 23 36 21
61 -3 46 -31 -19 -114 84 -129 160 -15 80 -51 113 -51 47 l0 -45 -44 48 c-29
31 -36 50 -20 55 56 19 26 138 -57 224 -104 107 -143 88 -131 -66 17 -210 141
-433 242 -433 39 0 49 -13 60 -85 21 -139 71 -279 134 -380 50 -79 135 -394
136 -500 0 -9 -52 -38 -115 -66 -63 -28 -142 -77 -175 -109 -64 -61 -344 -208
-441 -232 -135 -32 -461 -206 -536 -286 l-76 -82 268 0 c243 0 272 4 305 40
20 22 52 40 71 40 54 0 100 22 88 42 -6 10 3 12 20 6 19 -8 31 -1 31 18 0 32
70 85 129 97 20 4 40 24 43 44 7 49 14 54 49 32 24 -15 24 -18 -5 -19 -23 0
-31 -11 -23 -30 17 -45 40 -37 122 45 102 102 146 99 179 -13 14 -48 41 -105
60 -126 19 -22 35 -58 35 -81 1 -49 46 -71 62 -30 8 22 45 27 165 21 168 -8
374 30 374 70 0 25 96 84 138 84 13 0 57 17 99 38 41 22 66 27 54 14 -11 -14
-15 -31 -9 -37 16 -16 158 59 192 100 16 20 17 27 2 19 -13 -8 -29 -6 -36 6
-11 18 21 28 86 25 15 0 22 11 17 26 -12 29 33 76 54 55 7 -7 13 -2 13 12 0
13 9 19 20 12 11 -7 20 -4 20 6 0 9 24 28 53 42 47 21 51 20 42 -16 -6 -24 1
-44 18 -50 16 -7 24 -3 17 8 -11 18 16 29 56 22 9 -1 32 6 53 17 30 17 36 14
32 -14 -9 -58 16 -78 30 -25 l13 50 23 -55 c19 -48 51 -81 38 -39 -3 9 18 43
45 75 53 64 140 87 140 38 0 -16 16 -30 35 -30 32 -1 32 -3 2 -24 -30 -20 -29
-26 10 -60 40 -36 40 -37 4 -26 -22 7 -33 7 -26 -1 8 -8 -1 -26 -20 -41 -31
-25 -28 -26 25 -15 104 23 127 72 45 97 -28 9 -36 18 -19 24 14 6 38 0 54 -13
17 -14 51 -19 80 -12 37 9 50 5 50 -18 0 -16 16 -30 35 -31 19 0 52 -13 74
-30 21 -16 54 -29 72 -29 52 0 87 -51 38 -55 -21 -1 -43 6 -50 16 -6 11 -27
18 -45 17 -21 -1 -24 -5 -9 -11 34 -14 32 -47 -3 -47 -30 0 -58 53 -42 80 5 9
-14 22 -42 29 -64 16 -88 0 -29 -19 30 -9 41 -27 37 -57 -7 -53 -40 -79 -60
-47 -12 18 -15 18 -16 -2 0 -39 56 -52 94 -21 29 23 32 23 21 -7 -11 -30 -6
-32 41 -14 29 11 46 14 38 5 -9 -8 23 -36 70 -60 47 -25 75 -46 61 -46 -51 -2
-23 -33 34 -37 49 -4 58 2 49 31 -9 26 -2 24 25 -10 27 -33 50 -41 87 -32 41
10 46 8 25 -14 -48 -51 -24 -59 175 -59 110 0 200 7 199 15 -2 34 -167 145
-216 145 -36 0 -106 44 -218 137 -163 135 -568 367 -809 462 -79 31 -149 80
-229 163 -98 99 -127 118 -186 118 l-69 0 78 -80 78 -79 -49 -54 c-392 -433
-950 -686 -1226 -554 -95 45 -166 408 -85 439 37 14 55 116 32 179 -13 34 -13
47 0 39 28 -17 25 17 -4 46 -58 58 7 37 94 -31 266 -208 294 -245 230 -300
-45 -38 -53 -85 -15 -85 17 -1 15 -7 -5 -20 -21 -14 -4 -17 57 -12 48 4 93 15
100 25 7 9 35 19 62 22 70 8 72 17 12 72 -29 27 -44 52 -32 56 13 5 13 17 -1
37 -16 22 -24 24 -31 5 -13 -32 -66 18 -77 73 -10 54 295 165 338 122 13 -13
37 -4 69 25 27 25 44 35 36 22 -7 -13 0 -28 16 -34 18 -7 25 -1 19 15 -5 14 4
37 21 51 17 14 26 33 20 42 -17 28 29 42 66 21 33 -20 33 -21 -2 -21 -36 -1
-37 -49 -1 -53 76 -7 168 -80 168 -134 0 -31 5 -34 29 -15 32 26 29 48 -20
191 -34 101 -34 157 4 575 l12 135 64 0 c135 0 316 314 268 464 -34 105 -76
133 -155 103 -70 -26 -88 -16 -61 35 64 119 23 813 -54 905 -26 31 -47 68 -47
82 0 14 -13 37 -30 51 -16 13 -25 31 -20 40 22 35 -179 146 -233 129 -18 -6
-40 -1 -47 11 -48 78 -381 161 -480 120z m424 -308 c-2 -11 27 -30 65 -43 43
-15 58 -27 40 -35 -27 -10 24 -23 66 -16 8 1 15 -8 15 -20 0 -14 19 -18 50
-10 36 9 54 4 63 -17 6 -17 19 -26 29 -20 28 17 58 -9 46 -40 -27 -70 -288
-14 -288 63 0 14 -22 31 -50 38 -27 7 -45 20 -39 30 6 10 -8 18 -31 18 -28 0
-38 -8 -28 -25 8 -14 7 -18 -2 -10 -9 8 -26 6 -39 -4 -13 -11 -34 -11 -52 -1
-24 16 -23 23 11 49 39 29 39 30 -10 31 -40 0 -44 5 -20 20 38 25 179 19 174
-8z m-722 -68 c-32 -7 -29 -13 20 -46 l58 -38 -50 -1 c-45 -2 -46 -3 -10 -17
31 -13 19 -19 -57 -30 -53 -8 -112 -31 -132 -51 -48 -48 -160 -78 -122 -32 14
17 39 31 55 31 16 0 22 10 14 23 -8 13 -6 18 5 11 26 -16 73 16 79 54 2 18 -8
32 -24 32 -15 0 -28 -10 -28 -21 0 -12 -9 -16 -20 -9 -67 41 95 132 200 112
40 -8 43 -12 12 -18z m627 -195 c12 8 16 22 10 32 -6 11 -2 19 9 19 11 0 29
-16 40 -35 20 -33 21 -33 21 0 1 50 23 41 86 -34 52 -63 53 -67 15 -77 -22 -6
-35 -3 -29 7 19 31 -64 61 -89 32 -12 -15 -15 -33 -7 -41 8 -8 -8 -6 -35 4
-28 9 -88 14 -134 9 -77 -8 -84 -5 -76 33 4 23 -1 42 -11 42 -11 0 -19 -9 -19
-19 0 -11 -19 -30 -42 -42 -37 -20 -40 -18 -29 19 19 59 0 52 -69 -23 -32 -36
-59 -55 -59 -42 -1 12 28 50 63 85 63 61 96 77 96 46 0 -31 137 -21 149 11 10
27 16 26 50 -4 21 -19 48 -29 60 -22z m-650 9 c-9 -15 0 -18 27 -9 22 7 46 3
53 -8 9 -13 -16 -21 -67 -21 -83 0 -128 30 -67 46 60 16 68 15 54 -8z m151
-98 c0 -11 -37 -20 -81 -20 -49 0 -76 8 -69 20 7 11 43 20 81 20 38 0 69 -9
69 -20z m920 -41 c0 -11 -13 -19 -30 -19 -16 0 -30 -10 -30 -22 0 -12 14 -17
31 -10 18 6 26 3 19 -8 -7 -11 -21 -20 -32 -20 -33 0 -43 57 -15 87 28 30 57
25 57 -8z m-878 -115 c20 -53 -6 -57 -54 -9 -34 33 -35 33 -23 -12 11 -42 7
-45 -39 -34 -54 14 -106 56 -106 86 0 44 205 15 222 -31z m-722 -721 c0 -8
-18 -25 -40 -38 -39 -25 -63 26 -28 60 14 14 68 -3 68 -22z m1980 -1533 c0
-30 -11 -50 -28 -50 -16 0 -32 -7 -37 -15 -5 -8 -6 -4 -2 10 9 37 -28 30 -51
-10 -10 -19 -26 -28 -34 -19 -15 14 106 131 137 133 8 1 15 -21 15 -49z
m-1684 -198 c-25 -26 -96 -32 -96 -8 0 9 10 16 21 16 12 0 17 8 11 17 -6 10
11 13 37 8 36 -7 43 -15 27 -33z m-676 -213 c-111 -97 -256 -182 -271 -158 -6
10 50 57 125 105 250 160 278 170 146 53z"/>
<path d="M2274 2845 c-13 -67 -4 -78 34 -47 23 19 31 16 42 -17 7 -23 25 -41
41 -41 37 0 15 55 -33 81 -21 11 -38 34 -38 50 0 51 -35 31 -46 -26z"/>
<path d="M2925 2831 c43 -81 67 -92 106 -50 30 33 31 39 4 39 -17 0 -36 13
-42 29 -6 16 -29 27 -50 26 -34 -3 -37 -10 -18 -44z"/>
<path d="M2189 2354 c-55 -28 -69 -45 -58 -70 8 -19 14 -50 13 -69 -2 -40 62
-47 145 -15 62 23 183 4 154 -25 -11 -11 -43 -20 -72 -20 -119 0 -63 -54 69
-66 97 -10 240 128 240 231 0 71 -370 97 -491 34z"/>
<path d="M2910 2380 c-33 -9 -85 -21 -115 -28 -65 -15 -72 -44 -15 -62 49 -16
54 -105 9 -191 -59 -114 7 -342 70 -241 28 46 81 9 81 -57 0 -70 -43 -81 -116
-30 -40 29 -50 29 -108 0 -42 -21 -68 -25 -76 -11 -7 12 -28 16 -46 9 -47 -18
-65 41 -30 96 30 48 26 115 -7 115 -11 0 -17 -11 -12 -25 4 -13 -9 -38 -29
-55 -46 -36 -113 -180 -101 -215 13 -38 41 -30 55 15 7 22 29 40 48 40 20 0
52 -18 72 -40 20 -22 51 -40 70 -40 19 0 58 -22 88 -50 60 -56 156 -88 167
-55 4 11 27 17 51 13 29 -6 25 -1 -12 14 -68 27 -65 85 3 95 27 3 42 -2 35
-13 -6 -11 1 -30 16 -43 47 -38 59 13 22 91 -18 39 -28 83 -22 99 5 15 2 33
-8 39 -10 6 -13 24 -7 40 13 35 -38 111 -96 142 -62 33 90 59 169 30 60 -23
121 -9 101 23 -8 14 12 16 60 7 56 -11 73 -7 73 15 0 15 27 33 60 40 122 24
43 106 -150 154 -55 14 -56 15 -10 17 28 1 81 -7 119 -18 111 -31 118 11 11
58 -100 44 -300 55 -420 22z m378 -209 c-14 -35 -177 -45 -197 -13 -13 21 23
31 134 39 60 4 72 -1 63 -26z"/>
<path d="M3340 1910 c0 -16 9 -30 20 -30 11 0 20 -9 20 -20 0 -11 -20 -20 -45
-20 -52 -1 -83 -19 -90 -54 -3 -18 8 -20 43 -7 34 13 58 10 85 -11 35 -29 35
-29 -6 -9 -34 16 -46 14 -55 -10 -6 -18 -3 -26 8 -19 11 7 20 -4 20 -24 1 -30
4 -31 20 -6 11 17 20 20 20 8 0 -12 14 -21 30 -21 21 0 30 21 30 75 0 41 6 91
14 111 12 34 10 34 -23 7 -34 -27 -36 -26 -23 15 12 37 7 45 -27 45 -23 0 -41
-13 -41 -30z"/>
<path d="M2562 1483 c-16 -11 -41 -15 -55 -9 -38 14 -87 -31 -87 -79 0 -33 5
-36 29 -15 48 39 613 31 643 -9 12 -17 39 -30 60 -30 36 2 36 3 -2 19 -22 9
-29 18 -15 19 39 2 29 57 -14 81 -54 28 -523 48 -559 23z"/>
<path d="M4119 519 c-23 -15 -21 -19 11 -20 37 -1 36 -3 -5 -20 -25 -10 -45
-28 -45 -41 0 -16 8 -17 25 -3 14 12 40 24 59 28 28 6 29 13 9 41 -18 23 -34
27 -54 15z"/>
<path d="M2901 407 c-37 -27 -59 -29 -103 -13 -44 17 -53 16 -45 -6 27 -69
209 -54 223 19 9 42 -15 42 -75 0z"/>
<path d="M4162 355 c-1 -19 5 -36 13 -37 99 -15 132 -15 105 3 -17 10 -45 19
-63 19 -19 0 -38 11 -44 25 -6 15 -10 11 -11 -10z"/>
<path d="M2219 259 c-16 -10 -20 -19 -10 -19 11 0 -1 -14 -26 -32 -25 -18 -41
-45 -35 -60 6 -15 3 -28 -7 -28 -9 0 -26 -27 -38 -60 -26 -74 -15 -75 55 -5
83 83 133 249 61 204z"/>
<path d="M4220 190 c-27 -16 -39 -29 -25 -29 14 -1 25 -10 25 -20 0 -11 -13
-15 -30 -8 -19 7 -30 -1 -30 -21 0 -19 -14 -39 -31 -45 -47 -18 5 -67 68 -65
29 0 41 6 27 12 -20 7 -20 16 -2 38 18 22 17 28 -5 29 -19 0 -17 8 8 27 19 14
29 32 21 39 -7 7 5 13 26 13 29 1 32 5 11 18 -23 14 -23 19 0 28 15 6 18 11 7
12 -11 0 -42 -12 -70 -28z"/>
<path d="M1934 49 c-35 -47 -35 -49 3 -49 25 0 42 17 48 50 12 63 -5 63 -51
-1z"/>
<path d="M4500 64 c0 -13 -13 -24 -30 -24 -16 0 -30 -9 -30 -20 0 -27 74 -26
91 2 7 12 3 32 -9 44 -16 16 -22 16 -22 -2z"/>
</g>
</svg>
