<?xml version="1.0" encoding="UTF-8"?>
<!DOCTYPE svg  PUBLIC '-//W3C//DTD SVG 20010904//EN'  'http://www.w3.org/TR/2001/REC-SVG-20010904/DTD/svg10.dtd'>
<svg width="300pt" height="201pt" version="1.0" viewBox="0 0 300 201" xmlns="http://www.w3.org/2000/svg">
<metadata>Created by potrace 1.10, written by Peter Selinger 2001-2011</metadata>
<g transform="translate(0 201) scale(.1 -.1)">
<path d="m1260 1800c-9-6-10-10-3-10 6 0 15 5 18 10 8 12 4 12-15 0z"/>
<path d="m1293 1803c4-3 10-3 14 0 3 4 0 7-7 7s-10-3-7-7z"/>
<path d="m1605 1800c-4-6-2-17 5-25 9-10 6-15-12-21-29-10-68-12-62-3 2 4-5 9-15 12-15 3-19 0-16-13 2-12-4-20-18-24-32-8-37-7-37 7 0 6-15 17-34 23-28 8-33 8-29-3 10-25-29-42-94-43-35 0-63-4-63-9 0-13-71 11-77 26-7 19-21 16-19-3 0-9-5-19-13-22-9-3-11 0-6 8s3 11-6 8c-20-7-57-79-51-101 3-10 8-14 11-8 4 6 12 7 21 1 12-8 12-10 1-10-7 0-11-6-8-14 5-14-17-26-56-31-10-1-24-8-30-14-17-17-15-237 2-324 14-73 34-103 25-38-3 23 1 70 10 108s19 78 22 91c3 14 12 22 24 22 11 0 20 5 20 11s7 3 16-6 23-14 32-10c8 3 20 1 27-5 9-8 14-6 19 5 4 10-2 19-17 25-16 6-17 9-5 9 9 1 20-4 23-9 4-6 16-8 28-5 16 5 18 4 8-3-11-8-4-15 30-31 37-18 44-19 51-7 7 13 14 12 51-4 23-11 58-20 78-20 46 0 133-26 148-44 9-11 6-18-15-35-37-29-110-61-153-66-20-2-40-10-45-18-7-11-20-10-77 4-40 10-90 15-119 12-59-5-124-39-116-60 3-8 6-23 6-34 0-14 7-19 28-19 16 0 37-11 51-25 49-52 141-24 182 56 17 34 22 38 39 29 26-14 35-54 22-98-6-21-9-60-6-89 4-47 3-53-24-72-18-12-37-18-50-14-25 6-27 1-12-28 6-10 20-19 31-19s24-10 30-24c6-13 20-27 31-29 34-9 9-27-38-27-46 0-124-20-124-32 0-7 56-17 120-19 25-2 49-5 54-7 17-9-21-22-66-22-32 0-48-4-48-12 0-7-3-23-6-35-6-21-3-23 35-23 46 0 123-29 118-45-2-5-14-12-28-13-13-2-29-8-36-14-19-16-75-18-102-5-14 7-39 22-56 32l-30 19 24-30c14-16 58-61 97-99 51-49 72-76 70-90-2-11-8-19-12-18-10 2-9-50 2-84 3-13 11-23 18-24 6 0 1-4-11-9-20-8-22-15-18-50 5-40 5-40-29-40-19 0-45 4-59 9-33 13-61 89-61 168-1 35-4 63-8 63-25 0-116-44-142-69-38-36-166-105-226-121-85-23-227-100-260-141l-31-39h1073l1073 1-42 39c-30 28-51 40-72 40s-45 13-79 43c-78 70-182 134-344 212-119 58-166 87-212 130-45 42-67 55-90 55h-30l38-39c23-24 34-41 27-45-17-11-27-1-60 58-28 48-31 62-31 136 0 64-3 81-13 77-11-4-13 13-12 84 2 95 16 133 34 88 5-13 10-18 10-11 1 7 14 12 31 12 38 0 71 34 112 114 24 47 29 68 25 100-7 53-36 77-81 69l-34-5 8 38c5 20 12 85 15 143 7 116-11 258-37 289-8 9-27 38-41 63-30 52-50 65-67 43-14-16-50-19-50-4 0 13-40 59-62 71-11 6-19 5-23-1zm-195-100c-8-5-23-10-33-10s-20-7-23-15c-8-19-24-20-24-1 0 15 41 34 75 35 16 1 17-1 5-9zm182-2c-9-9-15-9-24 0s-7 12 12 12 21-3 12-12zm-397-8c3-5 1-10-4-10-6 0-11 5-11 10 0 6 2 10 4 10 3 0 8-4 11-10zm410-10c-3-5-12-10-18-10-7 0-6 4 3 10 19 12 23 12 15 0zm-361-24c-3-9 2-16 13-18 13-3 10-7-14-15-27-10-33-9-33 2 0 7 6 16 13 18 7 3 4 6-6 6-24 1-11 21 13 21 13 0 17-5 14-14zm153-13c-4-3-7 0-7 7s3 10 7 7c3-4 3-10 0-14zm-303-1c3-5-1-9-9-9s-12 4-9 9c3 4 7 8 9 8s6-4 9-8zm146-42c-8-5-19-10-25-10-5 0-3 5 5 10s20 10 25 10c6 0 3-5-5-10zm560 1c0-9-41-23-49-16-3 4 28 20 47 24 1 1 2-3 2-8zm-270-1431c-8-5-21-10-29-10-11 0-10 5 4 20 13 15 22 17 29 10 8-8 6-14-4-20z"/>
<path d="m1528 1793c7-3 16-2 19 1 4 3-2 6-13 5-11 0-14-3-6-6z"/>
<path d="m1200 1765c0-1 12-10 26-20 19-12 29-14 39-5 10 8 14 8 18-2 3-10 9-8 23 6 19 18 18 18-3 12-12-4-24-3-27 3-5 8-76 14-76 6z"/>
<path d="m1050 1579c0-5 5-7 10-4 6 3 10 8 10 11 0 2-4 4-10 4-5 0-10-5-10-11z"/>
<path d="m920 1111c0-40 14-46 31-15 11 22 11 27-1 34-24 16-30 12-30-19z"/>
<path d="m977 1062c-20-22-22-58-4-65 23-9 49 19 45 49-4 34-19 40-41 16z"/>
</g>
</svg>
