<?xml version="1.0" encoding="UTF-8"?>
<!DOCTYPE svg  PUBLIC '-//W3C//DTD SVG 20010904//EN'  'http://www.w3.org/TR/2001/REC-SVG-20010904/DTD/svg10.dtd'>
<svg width="300pt" height="201pt" version="1.0" viewBox="0 0 300 201" xmlns="http://www.w3.org/2000/svg">
<metadata>Created by potrace 1.10, written by Peter Selinger 2001-2011</metadata>
<g transform="translate(0 201) scale(.1 -.1)">
<path d="m1357 1618c4-7 6-21 5-30-4-21 9-23 26-6 9 9 11 7 7-10-3-16 0-20 13-16 11 3 9-1-5-12-26-19-30-34-8-34 8 0 15-4 15-10 0-5 6-10 14-10 23 0 126-49 132-63 2-7-2-29-9-48-8-18-12-39-10-46 2-6-1-14-6-18-17-10-13-82 4-89 8-3 15-12 15-21 0-13-10-15-51-12-71 6-137-10-144-34-9-27-75-28-75 0 0 24-41 51-77 51-30-1-67-23-56-33 3-4-23-7-60-7-36 0-68-4-71-9-7-10 11-116 24-148 5-13 15-23 21-23 8 0 7 6-3 18-16 17-29 78-21 98 2 6 16 9 31 7l27-5-24 20-24 19 28 7c31 8 113-2 121-15 3-5-3-9-13-9-15 0-16-2-3-10 11-8 8-9-11-5-22 5-31 1-48-23-26-37-27-46-1-30 15 10 22 10 32 0 17-17 74-15 92 4 23 23 21-3-4-43-19-33-35-39-100-46-28-3-25-4 15-6 46-2 48-3 25-13l-25-11 23-5c40-6 52 5 88 84 33 73 60 94 58 46-4-130 0-118-50-142-48-24-57-52-17-58 22-3 73-54 73-73 0-5-29-9-65-9-50 0-66 4-74 17-11 21-18 16-21-12-4-37-1-48 13-38 15 11 139 4 131-8-3-5-14-9-25-9-10 0-19-4-19-9 0-10 91-23 122-17 13 3 35 7 49 10 16 4 29 15 33 28 5 16 9 19 13 10 8-21-17-61-41-64-12-2-27-17-37-37-21-44-83-72-171-75-16-1-28-2-28-2 0-1 20-32 45-68 39-59 45-75 46-124 1-31 1-60 0-64 0-5 4-8 9-8 6 0 10-5 10-11 0-5-4-8-9-4-14 8-22-27-15-71 9-63 49-81 97-44 34 27 37 26 37-16 0-31 3-35 18-29 39 17 72 18 72 1 0-11 9-16 26-16h26l-27-38c-15-20-41-49-58-65l-31-27h135 136l-3 82-3 83 13-53c8-29 20-67 26-83l12-29h295 294l-7 23c-23 75-97 151-185 188-54 24-53 23-39 49 8 15 5 22-13 37-13 10-36 37-50 59-31 50-69 61-140 39-55-16-55-16-151 47-32 21-65 37-73 34-37-15-59 180-30 263 10 29 19 36 58 46 25 6 59 21 75 34 36 28 74 97 74 133 0 26-24 60-48 69-6 3-5 26 4 69 17 83 18 140 0 165-7 11-16 33-20 48-10 41-171 197-203 197-30 0-57 25-49 45 9 23-12 18-36-10-12-14-25-25-30-25-14 0-9 30 6 36 20 8 8 34-15 34-10 0-27 8-37 18-26 26-48 32-61 19-8-8-11-8-11 1 0 7-7 12-16 12-10 0-12-4-7-12zm136-505c-7-2-19-2-25 0-7 3-2 5 12 5s19-2 13-5zm-226-20c-4-3-10-3-14 0-3 4 0 7 7 7s10-3 7-7zm269-86c3-3-1-14-8-26-23-38-128-23-128 17 0 16 9 18 66 16 36-1 68-4 70-7zm-44-98c46-18 45-41-3-71-25-16-28-16-41 0-13 14-38 74-38 90 0 5 47-5 82-19zm155-152c-18-41-38-58-29-25 6 27 33 70 39 64 2-2-2-20-10-39z"/>
<path d="m1700 1470c0-7 3-10 7-7 3 4 3 10 0 14-4 3-7 0-7-7z"/>
<path d="m1050 1240c0-7 3-10 7-7 3 4 3 10 0 14-4 3-7 0-7-7z"/>
<path d="m1052 1200c0-14 2-19 5-12 2 6 2 18 0 25-3 6-5 1-5-13z"/>
<path d="m1081 439c-14-5-47-26-75-46-72-52-256-122-321-123-16 0-49-9-71-19-33-15-44-27-54-58-7-21-22-54-35-73-12-20-32-54-44-78l-21-42h35c21 0 35 5 35 13 1 6 7 26 15 42 14 27 15 28 11 5-2-14-7-33-11-42-5-14-2-18 13-18 12 0 19 6 18 17-1 13 13 19 64 28 84 15 109 29 199 115 95 91 98 91 39 4-53-79-169-167-198-149-4 3-19 1-32-4-15-7 77-10 270-10 160-1 292 1 292 4 0 2-13 26-30 52-19 29-30 60-30 82 0 20-7 55-15 78-8 22-17 71-21 107s-10 66-15 66c-4 0-15-10-23-22-19-26-21-19-4 16 6 14 19 28 29 31 9 3 23 12 29 20 10 12 9 15-6 14-11 0-30-5-43-10z"/>
</g>
</svg>
