<?xml version="1.0" standalone="no"?>
<!DOCTYPE svg PUBLIC "-//W3C//DTD SVG 20010904//EN"
 "http://www.w3.org/TR/2001/REC-SVG-20010904/DTD/svg10.dtd">
<svg version="1.0" xmlns="http://www.w3.org/2000/svg"
 width="300.000000pt" height="201.000000pt" viewBox="0 0 300.000000 201.000000"
 preserveAspectRatio="xMidYMid meet">
<metadata>
Created by potrace 1.10, written by Peter Selinger 2001-2011
</metadata>
<g transform="translate(0.000000,201.000000) scale(0.050000,-0.050000)"
fill="#000000" stroke="none">
<path d="M2709 3278 c-7 -12 -30 -17 -51 -12 -24 7 -41 -3 -49 -28 -6 -20 -27
-36 -45 -34 -124 10 -164 -68 -50 -97 32 -8 45 -22 37 -41 -6 -16 -11 -33 -11
-38 0 -4 -13 -8 -30 -8 -16 0 -30 9 -30 20 0 86 -129 -13 -208 -159 -20 -39
-73 -125 -116 -191 -74 -112 -79 -127 -70 -235 9 -102 6 -115 -27 -115 -48 0
-68 -35 -40 -69 12 -14 28 -133 34 -264 10 -177 22 -250 47 -287 19 -27 41
-81 49 -120 8 -38 46 -128 85 -199 61 -114 68 -141 58 -230 -6 -56 -11 -132
-12 -171 0 -64 -8 -73 -92 -108 -51 -21 -132 -68 -180 -105 -115 -87 -413
-203 -617 -238 -184 -33 -252 -74 -281 -172 -11 -37 -44 -108 -72 -158 -29
-49 -68 -118 -86 -154 l-33 -65 68 0 c65 0 70 5 93 95 22 86 26 90 42 49 12
-33 8 -60 -15 -95 -27 -43 -28 -49 -2 -49 17 0 35 17 40 37 7 28 37 41 117 51
179 23 262 78 492 324 249 266 272 274 117 40 -161 -242 -416 -457 -503 -424
-15 6 -48 3 -73 -7 -30 -13 44 -19 228 -20 297 -1 297 -1 297 119 0 54 86 233
248 517 39 70 72 134 72 143 0 52 204 123 230 80 7 -11 23 -20 36 -19 13 0 8
13 -12 28 -31 23 -35 43 -22 124 9 53 13 114 10 135 -7 51 83 -32 209 -192
l90 -114 -44 -40 -43 -41 48 -17 c63 -23 158 -19 159 6 1 11 30 35 65 54 56
30 59 34 19 35 -25 1 -45 11 -45 24 0 13 -19 6 -43 -15 -24 -21 -37 -27 -29
-13 8 14 4 25 -10 25 -14 0 -19 6 -12 13 8 7 4 25 -9 40 -16 20 -16 34 0 54
13 15 18 33 13 40 -6 7 -5 9 2 4 7 -5 36 13 65 40 29 27 68 49 87 49 18 0 39
8 45 18 6 10 35 24 66 31 52 14 84 42 85 77 0 9 -9 11 -19 5 -11 -7 -33 13
-49 43 -17 31 -31 49 -31 40 -1 -9 8 -33 19 -54 16 -30 12 -40 -20 -50 -22 -7
-40 -26 -40 -43 0 -17 -10 -23 -23 -15 -15 9 -18 5 -7 -12 10 -17 8 -21 -6
-12 -12 7 -18 26 -12 41 6 15 -1 34 -14 43 -15 8 -29 5 -33 -8 -6 -16 -20 -18
-42 -6 -21 11 -60 9 -103 -5 -39 -13 -81 -23 -95 -21 -14 2 -39 4 -56 6 -17 1
-27 10 -21 19 6 10 -10 13 -34 9 -62 -12 -140 55 -147 126 -4 32 -12 83 -19
113 -15 66 24 123 70 104 18 -8 84 -12 147 -10 69 2 115 -5 115 -18 0 -29 206
-27 236 3 31 31 31 89 -1 101 -37 13 -77 -5 -63 -29 9 -13 -47 -16 -165 -9
-97 6 -200 12 -227 12 -63 1 -106 87 -88 178 16 76 -22 71 -106 -13 -42 -41
-53 -45 -76 -22 -26 28 -75 220 -59 235 20 21 69 -21 69 -59 0 -34 9 -40 45
-31 25 7 82 13 127 13 l82 0 73 161 c56 124 81 160 108 155 41 -8 72 -189 40
-231 -28 -35 -3 -85 43 -85 22 0 45 -18 52 -40 22 -69 -9 -82 -66 -29 -71 67
-244 52 -244 -21 0 -42 34 -54 82 -29 24 13 38 14 31 4 -13 -21 52 -87 117
-121 77 -39 138 38 124 156 l-12 98 69 -29 c38 -16 101 -43 141 -59 39 -17 94
-58 121 -90 28 -33 61 -60 73 -60 16 0 15 7 -1 23 -16 16 -17 35 -4 59 21 38
-27 79 -108 92 -74 12 -109 45 -49 45 112 2 153 33 186 145 45 156 56 169 121
139 29 -13 68 -20 86 -14 39 12 163 -58 163 -92 0 -14 -16 -9 -39 12 -74 67
-175 58 -166 -16 14 -111 24 -128 54 -87 23 31 28 31 38 4 10 -25 21 -27 51
-11 60 32 72 25 32 -19 -36 -39 -36 -42 2 -70 50 -38 28 -38 -45 0 -56 29 -57
29 -64 -25 -3 -30 -24 -71 -45 -91 -21 -19 -38 -49 -38 -65 0 -16 -7 -29 -16
-29 -9 0 -28 -34 -43 -75 -14 -41 -63 -137 -107 -213 -45 -75 -83 -165 -85
-200 -1 -34 -12 -84 -24 -112 -23 -56 -19 -71 14 -51 12 8 16 24 8 37 -7 13
-6 17 4 8 9 -8 19 -27 21 -42 11 -75 34 -112 71 -112 21 0 34 -9 27 -20 -7
-11 1 -20 17 -20 17 0 36 -18 43 -39 21 -67 95 -7 84 68 l-8 58 36 -44 c49
-61 35 -146 -45 -271 -35 -56 -99 -166 -141 -245 -42 -78 -129 -198 -194 -265
l-118 -122 79 0 c80 0 175 73 176 136 1 15 10 21 21 14 11 -7 20 2 20 19 0 17
9 31 20 31 30 0 25 -13 -42 -105 -54 -75 -57 -86 -25 -92 19 -4 39 3 43 15 4
12 14 18 21 14 8 -5 15 6 16 24 5 105 31 216 57 244 17 18 30 43 30 54 0 12
14 27 30 33 17 7 29 19 26 27 -18 70 79 142 114 86 7 -12 2 -19 -12 -15 -32 7
-54 -82 -36 -145 8 -27 24 -103 36 -167 28 -158 46 -176 172 -171 94 4 103 9
94 44 -7 27 -3 36 13 26 14 -9 18 -3 11 15 -13 35 17 96 94 193 53 66 158 248
158 273 0 7 -31 -12 -69 -41 -38 -29 -74 -44 -80 -33 -6 10 -3 24 8 30 10 7
14 25 8 42 -6 16 -2 29 9 29 10 0 24 18 30 40 14 56 -19 50 -85 -16 -54 -54
-83 -113 -93 -194 -2 -22 -6 -40 -7 -40 -2 0 -7 -40 -12 -90 -5 -50 -13 -108
-17 -130 -5 -22 -10 -56 -10 -75 -3 -67 -62 -39 -62 30 -1 51 -5 58 -21 35
-48 -70 8 178 70 312 96 207 199 288 291 228 26 -17 26 -19 1 -20 -20 0 -14
-11 17 -33 36 -25 50 -27 62 -7 23 37 38 -20 18 -70 -9 -22 -26 -79 -38 -126
-12 -47 -30 -80 -41 -73 -21 13 -51 -53 -65 -146 -8 -48 -3 -60 18 -51 38 14
36 -42 -2 -74 -42 -35 -37 -80 8 -80 29 0 48 27 73 105 33 98 81 192 111 215
7 6 17 28 21 50 8 40 77 58 77 20 0 -11 -11 -20 -25 -20 -16 0 -24 -27 -23
-75 4 -135 8 -155 29 -155 12 0 17 7 12 16 -24 38 20 66 74 45 46 -17 52 -29
42 -76 -11 -53 -10 -53 20 -16 17 21 31 32 31 23 0 -9 -18 -39 -40 -67 -43
-54 -39 -86 5 -49 30 25 118 24 102 0 -5 -9 45 -16 112 -16 136 0 139 5 79
126 -55 111 -182 225 -318 287 -135 62 -128 55 -97 105 24 38 19 47 -46 101
-40 33 -78 82 -84 108 -20 78 -112 104 -249 71 -148 -35 -135 -38 -298 69 -77
51 -156 93 -174 93 -119 0 -120 581 -2 590 181 14 350 186 350 356 0 67 -48
134 -97 134 -29 0 -29 -2 6 97 37 104 34 466 -4 478 -14 5 -25 20 -25 34 0 40
-81 133 -110 126 -27 -5 -150 111 -150 143 0 10 -14 23 -31 30 -17 6 -27 20
-20 30 15 24 -32 40 -97 33 -41 -4 -52 3 -52 37 -1 56 -28 96 -62 91 -57 -8
-98 2 -98 22 0 12 17 16 38 10 21 -7 44 -4 51 7 7 11 -21 26 -61 34 -41 7
-119 30 -176 51 -117 43 -144 45 -163 15z m81 -140 c-8 -40 -6 -41 27 -10 29
26 36 27 36 4 0 -31 -86 -79 -100 -56 -9 16 20 104 35 104 5 0 6 -19 2 -42z
m255 -50 c23 -22 -9 -68 -47 -68 -42 0 -52 51 -13 67 36 14 47 15 60 1z m-327
-72 c18 -29 16 -36 -9 -36 -17 0 -26 -9 -19 -20 8 -13 37 -4 75 24 55 39 61
39 48 8 -11 -30 -6 -35 26 -26 50 13 227 -42 327 -101 42 -25 87 -45 100 -46
40 -1 179 -135 165 -158 -7 -11 -6 -21 3 -21 9 0 16 -41 17 -90 0 -64 -7 -88
-25 -81 -32 12 -25 -109 9 -145 14 -15 25 -40 25 -57 0 -16 7 -25 15 -20 8 5
26 -3 40 -18 13 -15 16 -32 7 -38 -10 -6 -23 0 -28 14 -7 20 -17 20 -52 0 -35
-21 -53 -20 -101 5 -33 16 -72 30 -89 30 -16 0 -43 19 -60 43 -35 50 -124 66
-140 25 -6 -15 -21 -28 -34 -28 -17 0 -16 8 1 29 77 93 -157 102 -259 11 -37
-33 -83 -60 -102 -60 -58 0 -141 38 -129 59 27 43 -38 101 -112 101 -82 0
-196 -49 -153 -66 14 -6 -8 -12 -49 -12 -62 -2 -75 5 -75 38 0 42 65 120 100
120 11 0 20 9 20 20 0 11 10 20 21 20 12 0 34 11 48 25 59 55 112 95 126 93
40 -7 52 5 25 23 -26 17 -25 24 9 49 51 39 71 38 71 -5 1 -26 5 -28 17 -9 9
14 29 23 45 20 17 -4 26 7 22 29 -3 19 6 35 20 36 18 0 16 6 -5 18 -18 11 -63
11 -107 1 -42 -9 -91 -12 -107 -5 -18 6 -42 -4 -58 -26 -26 -35 -27 -35 -27 2
0 24 -6 30 -15 17 -8 -13 -31 -17 -51 -10 -33 12 -31 18 15 61 28 26 51 59 51
73 0 28 72 58 123 51 19 -3 39 5 46 16 8 12 36 21 63 21 28 0 46 7 41 16 -6 8
6 15 26 15 20 0 47 -16 59 -35z m-253 -740 c188 -56 23 -336 -180 -307 -163
23 -208 62 -135 116 11 8 0 15 -25 15 -37 0 -45 11 -45 60 0 47 9 60 40 60 22
0 40 -9 40 -20 0 -11 -10 -18 -22 -15 -13 3 -27 -7 -33 -22 -14 -39 37 -19 64
24 17 28 11 43 -29 76 -49 39 -49 40 -5 31 25 -6 45 -1 45 10 0 24 164 7 285
-28z m714 -55 c99 -54 20 -283 -104 -303 -108 -17 -257 10 -288 53 -39 53 -36
137 4 121 17 -6 50 6 72 27 41 38 42 38 84 -6 35 -37 56 -43 118 -32 98 17
109 30 52 61 -74 41 -226 46 -263 9 -39 -38 -54 -39 -54 -3 0 15 14 33 30 39
17 7 30 27 30 45 0 39 241 30 319 -11z m-819 -301 c-72 -23 -140 -23 -140 0 0
11 43 19 95 18 77 -2 86 -5 45 -18z m-40 -338 c0 -21 -13 -43 -30 -49 -31 -12
-44 47 -17 74 25 25 47 13 47 -25z m1361 -1061 c-13 -9 -24 -21 -23 -28 7 -49
1 -57 -26 -35 -15 13 -24 43 -18 68 22 99 26 103 59 55 25 -34 27 -49 8 -60z
m-1949 9 c-17 -27 -47 -72 -64 -100 -40 -62 -78 -66 -46 -5 23 45 118 155 134
155 5 0 -6 -22 -24 -50z m-243 -212 c-14 -22 -125 -43 -149 -28 -41 25 4 51
80 47 43 -3 74 -11 69 -19z m-195 -59 c3 -21 -3 -39 -14 -39 -11 0 -20 9 -20
20 0 11 -16 21 -35 22 -33 3 -33 3 0 12 19 5 35 19 35 31 0 34 27 -2 34 -46z"/>
<path d="M2740 2819 c0 -12 -7 -17 -15 -12 -8 5 -27 -4 -41 -19 -41 -44 16
-35 76 12 41 32 43 39 15 40 -19 0 -35 -10 -35 -21z"/>
<path d="M2813 2687 c-27 -28 -10 -43 72 -63 l85 -21 -60 48 c-64 52 -76 56
-97 36z"/>
<path d="M3040 2590 c14 -16 20 -48 14 -70 -12 -47 2 -50 55 -9 23 17 28 29
13 29 -15 0 -21 13 -15 28 6 16 -3 34 -20 40 -54 21 -73 14 -47 -18z"/>
<path d="M2459 2232 c-5 -4 -49 -11 -99 -14 -99 -6 -178 -50 -179 -100 -1 -55
26 -61 62 -14 28 37 40 41 60 21 14 -14 48 -24 76 -24 46 2 47 3 11 19 -34 14
-30 17 24 19 35 0 69 10 76 21 13 21 -16 87 -31 72z"/>
<path d="M3140 3172 c0 -5 34 -20 75 -34 76 -25 111 -60 165 -165 17 -32 36
-55 43 -51 7 5 31 -9 53 -29 99 -89 102 -22 4 90 -108 122 -340 251 -340 189z"/>
<path d="M3076 1643 c21 -13 20 -21 -4 -41 -16 -14 -25 -37 -19 -52 12 -32
-43 -125 -108 -180 -67 -57 -44 -127 27 -81 25 17 62 31 81 31 18 0 28 6 21
12 -7 7 1 26 17 42 16 16 23 39 16 51 -7 12 -4 15 9 8 27 -17 43 9 48 80 2 31
11 67 20 80 12 15 -4 30 -46 45 -75 26 -98 28 -62 5z"/>
<path d="M2510 1460 c7 -11 64 -19 126 -18 87 2 102 6 64 18 -74 24 -205 24
-190 0z"/>
<path d="M2166 722 c-24 -39 -38 -232 -20 -282 27 -78 54 -224 43 -241 -6 -10
-1 -19 11 -19 12 0 17 -9 9 -21 -7 -11 -2 -34 12 -50 19 -23 18 -29 -4 -29
-16 0 -30 -18 -32 -40 -1 -22 10 -40 26 -40 16 0 23 12 16 30 -6 16 -1 30 11
30 12 0 20 -11 17 -25 -3 -16 25 -27 80 -31 101 -7 101 -10 25 109 -33 52 -60
110 -60 128 0 18 -18 103 -40 189 -22 86 -40 184 -40 218 -1 87 -25 120 -54
74z"/>
<path d="M2794 691 c-27 -20 -29 -29 -10 -36 60 -20 -29 -79 -108 -71 -61 6
-76 0 -76 -27 0 -19 -9 -40 -20 -47 -12 -7 -15 -21 -9 -32 6 -10 20 -13 31 -7
10 6 14 20 8 29 -6 10 45 16 115 14 92 -3 124 3 120 22 -3 14 8 30 25 37 16 6
24 20 17 31 -7 12 5 11 29 -2 58 -31 75 -28 75 15 0 28 -12 35 -55 30 -31 -3
-55 0 -53 8 10 68 -27 83 -89 36z"/>
<path d="M2991 535 c-96 -106 -178 -275 -135 -275 20 0 70 42 113 93 67 80 81
88 101 60 18 -24 29 -26 46 -9 18 18 11 39 -26 88 -55 72 -60 88 -29 88 12 0
16 -9 9 -20 -7 -11 -3 -20 9 -20 11 0 21 14 21 30 0 49 -47 34 -109 -35z"/>
<path d="M2065 455 c7 -17 -4 -65 -24 -108 -79 -167 -89 -285 -25 -289 21 -1
14 -8 -16 -17 -43 -13 -45 -18 -16 -30 41 -18 151 27 166 67 15 37 -3 52 -35
28 -85 -66 -118 8 -60 137 53 117 65 220 27 233 -19 6 -24 -1 -17 -21z"/>
<path d="M2595 444 c-20 -4 -31 -15 -24 -25 24 -39 -15 -220 -47 -214 -16 3
-34 -6 -38 -19 -6 -16 12 -23 53 -20 42 3 61 14 61 38 0 18 9 39 20 46 12 7
16 20 10 30 -5 9 7 12 27 7 37 -10 175 128 151 151 -12 13 -162 17 -213 6z"/>
<path d="M3356 300 c-14 -35 -26 -109 -26 -166 0 -57 -9 -111 -20 -119 -11 -8
19 -15 67 -15 76 0 85 5 72 35 -8 19 -18 98 -21 175 -6 153 -33 187 -72 90z"/>
</g>
</svg>
