<?xml version="1.0" encoding="UTF-8"?>
<!DOCTYPE svg  PUBLIC '-//W3C//DTD SVG 20010904//EN'  'http://www.w3.org/TR/2001/REC-SVG-20010904/DTD/svg10.dtd'>
<svg width="300pt" height="201pt" version="1.0" viewBox="0 0 300 201" xmlns="http://www.w3.org/2000/svg">
<metadata>Created by potrace 1.10, written by Peter Selinger 2001-2011</metadata>
<g transform="translate(0 201) scale(.1 -.1)">
<path d="m1625 1630c-4-6-14-9-22-6-19 8-39-4-24-13 12-8 6-11-73-45-39-17-39-18-20-36 19-19 47-28 95-29 14-1 33-7 43-14 15-11 16-15 3-40-8-15-18-23-22-19-5 4-5-1-2-10 3-10 2-20-4-24-10-6-32-51-33-67-1-4 10-13 24-20 22-11 25-19 26-70 2-57-3-66-23-46-8 8-25 5-64-13l-53-24-2-54c-2-82-19-189-31-201-5-5-23-11-39-12s-29-8-28-15c2-30 5-34 19-28 18 7 18 4 3-29-10-21-9-27 7-39 10-7 27-11 37-8 10 2 18-1 18-7s-17-11-37-11c-126-1-153-13-138-61 7-21 7-21 31 2 21 20 29 21 75 13 59-10 74-28 32-37-18-3-30-13-31-24-8-63-7-67 27-90 29-20 31-23 12-23-11 0-21-6-21-14 0-19-30-29-46-15-11 9-14 9-14 0s-6-8-22 1c-59 32-61 16-8-44 21-25 37-48 33-51-3-3 2-13 11-22s16-22 16-29c0-8 7-19 15-26 62-52 104-173 64-183-11-3-19-14-19-27 0-20 3-21 80-15 77 5 81 4 111-22 17-16 35-27 40-26 5 2 9-2 9-7 0-6 11-3 25 6s34 14 45 11 23-1 26 5c3 5 15 8 25 5 11-3 19-1 19 3s9 6 20 3 26-1 33 4c6 6 30 13 52 16 31 5 36 4 22-4-11-6-26-12-35-13-12-2-17-13-17-35 0-17-7-36-15-41-21-14 236-13 261 0 10 6 19 16 19 22 0 18 33 37 63 38 23 0 27 3 23 24-3 15 1 27 9 30 9 3 12 0 8-10-3-8 1-14 11-14 9 0 16 5 16 11 0 5 5 7 11 3 7-4 10-2 8 5-3 7-8 12-13 11s-12 4-16 11c-12 19-40 2-51-31-6-16-15-30-21-30-5 0-6 6-3 13 4 6-2 2-13-10-11-13-28-23-37-23s-14-3-12-7c3-5-19-9-49-11-57-3-65 3-36 24 16 12 16 13-4 14-12 0-27 7-34 15-14 17-7 19 20 5 13-7 21-6 30 5 18 22 24 19 39-17 7-18 15-28 17-22 3 7 14 10 24 7 15-4 20 0 19 13 0 11-3 14-5 7-3-7-12-9-20-6-23 9-8 19 33 21 21 2 40 7 41 13 2 5 10 16 18 23 18 19 18 30-1 23-8-4-17-1-21 5-4 7-3 8 4 4s12-2 12 3c0 6-9 11-19 11-21 0-37 15-24 23 5 2 3 3-3 1-6-1-16 2-22 8-9 9-22 11-96 17-12 1-16 6-12 16 3 8 1 15-3 15-5 0-11-5-13-12-2-6-10-8-17-4-8 5-9 12-2 20 7 9 6 19-5 34-8 12-12 22-8 22 3 0 1 7-6 15s-17 12-22 9c-6-4-5 3 1 14 8 16 8 23-1 28-6 4-14 2-16-4-2-7-8-10-12-7-5 3-7 12-4 20 3 7-3 18-13 24-11 5-25 28-33 51-7 22-19 45-27 51-7 6-13 16-13 21s-7 16-15 24c-11 12-15 39-15 104 0 110 3 118 39 112 23-3 37 4 65 30 29 27 38 44 47 93 12 65 7 133-13 168-9 15-11 65-9 168 3 161-1 179-51 205-41 21-81 61-102 102-18 36-57 65-89 67-12 1-36 5-54 9-20 4-34 3-38-4zm95-90c12-8 11-10-7-10-13 0-23 5-23 10 0 13 11 13 30 0zm-60-570c19-16 21-22 10-35-29-35-71-5-50 36 13 23 12 23 40-1zm388-768c-12-14-10-14 10-3 19 10 28 10 48-4 26-17 31-26 12-22-8 1-13-7-12-20 0-17-3-20-12-12-8 6-14 6-18 0-3-5-15-7-26-4-15 4-19 11-14 25 4 13 2 18-4 14-6-3-9 1-8 11 2 9 8 19 14 21 7 2 9 9 6 14-4 7-2 8 5 4 9-6 9-11-1-24zm-134-54c7-5 6-8-3-8-7 0-11-6-7-15 4-11-2-15-27-15-24 0-28-3-17-10 13-8 12-10-2-10-25 0-22 17 3 31 15 8 18 13 10 19-10 5-9 9 3 13 10 4 13 13 10 24-4 14-3 14 7-2 7-11 17-23 23-27zm103-5c-4-3-7 0-7 7s3 10 7 7c3-4 3-10 0-14zm-42-13c-3-5-10-10-16-10-5 0-9 5-9 10 0 6 7 10 16 10 8 0 12-4 9-10zm42-56c-3-3-12-4-19-1-8 3-5 6 6 6 11 1 17-2 13-5zm-90-11c-4-3-10-3-14 0-3 4 0 7 7 7s10-3 7-7zm100-9c-3-3-12-4-19-1-8 3-5 6 6 6 11 1 17-2 13-5z"/>
<path d="m2064 181c4-5 0-12-6-14-8-4-9-6-2-6 6-1 17 6 24 14 10 12 9 15-4 15-10 0-15-4-12-9z"/>
<path d="m1134 1305c-18-20-21-34-19-106 2-60-1-86-11-97-8-7-12-18-9-23 4-5 6-35 6-67 1-44 4-59 15-59 10 0 14 16 15 61 0 34 8 97 18 142 10 49 15 99 12 127l-6 46-21-24z"/>
<path d="m1285 1174c-71-26-116-106-57-102 48 3 82-2 82-12 0-5-11-10-25-10s-25-4-25-10c0-17 46-11 73 10 14 11 32 20 40 20 21 0 35 20 39 59 3 31 0 35-32 47-44 16-47 16-95-2z"/>
<path d="m1130 930c0-7 3-10 7-7 3 4 3 10 0 14-4 3-7 0-7-7z"/>
<path d="m1316 874c-9-24-7-28 9-14 17 14 20 30 6 30-5 0-12-7-15-16z"/>
<path d="m1210 453c-14-15-41-61-61-100-33-66-35-73-18-78 11-4 16-12 12-21-3-7 0-14 7-14 9 0 10-3 1-14-9-10-8-15 4-20 8-3 15-11 15-18 0-8-3-9-8-3-9 13-52 17-52 5 0-21 13-40 28-40 13 0 12 3-4 15-13 11-14 14-4 13 8-2 20-12 27-23 11-18 12-18 13-2 0 18 20 25 20 6 0-6 8-22 19-35l19-24 12 30c16 38 19 295 4 328l-10 23-24-28z"/>
<path d="m1093 363c4-3 10-3 14 0 3 4 0 7-7 7s-10-3-7-7z"/>
<path d="m2039 346c8-9 11-19 8-23-4-3 5-15 19-25 34-27 40-18 12 18-13 16-22 31-20 34s-5 7-15 9c-15 3-16 1-4-13z"/>
<path d="m1030 264c0-8 5-12 10-9 6 3 10 10 10 16 0 5-4 9-10 9-5 0-10-7-10-16z"/>
<path d="m2188 273c7-3 16-2 19 1 4 3-2 6-13 5-11 0-14-3-6-6z"/>
<path d="m2096 262c-3-6-1-14 5-17 15-10 25 3 12 16-7 7-13 7-17 1z"/>
<path d="m1110 220c0-5 5-10 11-10 5 0 7 5 4 10-3 6-8 10-11 10-2 0-4-4-4-10z"/>
<path d="m840 181c0-10 30-24 37-17 3 2-5 9-16 16-12 6-21 7-21 1z"/>
<path d="m2275 180c3-5 8-10 11-10 2 0 4 5 4 10 0 6-5 10-11 10-5 0-7-4-4-10z"/>
<path d="m2313 173c-7-2-13-8-13-12 0-11 34-7 38 4s-8 15-25 8z"/>
<path d="m2435 170c3-5 16-10 28-9 21 0 21 1 2 9-28 12-37 12-30 0z"/>
<path d="m1025 160c-3-4 6-24 19-43 17-24 24-48 23-74-2-33 1-38 21-41 13-2 30 2 39 10 14 11 16 11 8-2s-7-13 8-1c11 9 17 10 17 2 0-6 12-11 28-11 23 0 27 4 29 30 2 22-1 29-10 23-29-18-132 26-141 61-9 32-7 43 5 26 8-12 10-11 7 5-3 20-43 31-53 15z"/>
<path d="m1093 143c4-3 10-3 14 0 3 4 0 7-7 7s-10-3-7-7z"/>
<path d="m2415 140c3-5 8-10 11-10s2 5-1 10c-3 6-8 10-11 10s-2-4 1-10z"/>
<path d="m870 130c0-7 3-10 7-7 3 4 3 10 0 14-4 3-7 0-7-7z"/>
<path d="m1109 130c-19-13-8-18 21-10 19 4 21 7 9 12-9 3-22 2-30-2z"/>
<path d="m890 110c0-7 3-10 7-7 3 4 3 10 0 14-4 3-7 0-7-7z"/>
<path d="m915 110c3-5 8-10 11-10 2 0 4 5 4 10 0 6-5 10-11 10-5 0-7-4-4-10z"/>
<path d="m2382 108c2-6 12-12 22-14 14-2 15 0 5 12-14 17-32 19-27 2z"/>
<path d="m2530 110c0-7 3-10 7-7 3 4 3 10 0 14-4 3-7 0-7-7z"/>
<path d="m717 81c-4-17-3-21 5-13 5 5 8 16 6 23-3 8-7 3-11-10z"/>
<path d="m2632 88c6-18 25-20 31-3 5 10 0 15-14 15-12 0-19-5-17-12z"/>
<path d="m740 80c0-5 5-10 11-10 5 0 7 5 4 10-3 6-8 10-11 10-2 0-4-4-4-10z"/>
<path d="m1230 84c0-6 7-19 15-30 8-10 14-14 14-9 0 6-6 19-14 29-8 11-15 15-15 10z"/>
<path d="m2080 79c0-5 5-7 10-4 6 3 10 8 10 11 0 2-4 4-10 4-5 0-10-5-10-11z"/>
<path d="m2580 77c0-9 5-17 10-17 6 0 10-7 10-16 0-8 5-12 10-9 6 3 10-1 10-10 0-12-6-15-20-10-12 4-20 2-20-5 0-6 21-10 54-9 67 2 92 15 51 25-19 5-30 3-33-4-2-7-8-12-13-12-6 0-8 3-6 7 3 5-8 24-24 43-21 24-29 29-29 17z"/>
<path d="m650 70c0-7 3-10 7-7 3 4 3 10 0 14-4 3-7 0-7-7z"/>
<path d="m960 58c14-11 24-26 22-32s0-7 4-3c11 11 14 38 3 31-5-3-9 0-9 6s-4 8-10 5c-5-3-10-1-10 4 0 6-6 11-12 11-7-1-2-10 12-22z"/>
<path d="m2335 67c-16-19-18-50-3-44 7 2 21-2 30-10 15-13 16-13 11 8-4 15-3 20 5 15 7-4 12-14 12-22s5-14 11-14c5 0 7 5 4 10-3 6 4 10 17 10 19 0 20-2 8-11-13-9-13-10 0-6 10 2 14 13 12 31-3 25-2 27 17 17 25-14 41-14 21-1-12 7-8 10 14 10 51 0 20 11-38 13-40 2-56-1-56-10 0-7 5-13 10-13 6 0 10-5 10-10 0-7-6-7-20 0-10 6-18 16-16 23 1 6 1 9-1 5-6-11-31-10-35 1-1 5-7 4-13-2z"/>
<path d="m569 43c-7-16-15-31-17-34-1-4 8-6 22-5 19 1 22 4 15 18-5 9-6 24-3 32 10 26-2 18-17-11z"/>
<path d="m690 60c0-7 3-10 7-7 3 4 3 10 0 14-4 3-7 0-7-7z"/>
<path d="m1794 58c-4-5-4-11-1-14 6-6 37 6 37 15 0 11-30 9-36-1z"/>
<path d="m1840 59c0-5 5-7 10-4 6 3 10-1 10-10 0-19 22-15 28 5 3 7 0 10-7 6-6-4-11-2-11 3 0 6-7 11-15 11s-15-5-15-11z"/>
<path d="m2552 58c-7-7-12-18-12-25s-3-12-7-12c-19 3-33-2-33-11 0-6 15-10 34-8 25 1 38 8 45 24 12 28-8 51-27 32z"/>
<path d="m2640 48c0-4 7-8 15-8s15 4 15 8c0 5-7 9-15 9s-15-4-15-9z"/>
<path d="m530 26c0-31 6-34 13-6 3 11 1 23-4 26s-9-6-9-20z"/>
<path d="m684 37c10-9 15-20 12-25-8-13 37-10 46 3 12 16 9 22-11 28-14 3-18 1-14-10 5-13 1-13-23 2-20 12-23 12-10 2z"/>
<path d="m770 30c14-9 7-15-15-10-5 1-4-4 3-12 11-11 14-10 22 2 10 16 4 30-13 30-7 0-6-4 3-10z"/>
<path d="m895 30c3-5 8-10 11-10 2 0 4 5 4 10 0 6-5 10-11 10-5 0-7-4-4-10z"/>
<path d="m947 23c7-17 23-17 23 0 0 8-6 14-14 14s-12-6-9-14z"/>
<path d="m2296 15c4-8 18-15 33-15h26l-29 15c-35 19-37 19-30 0z"/>
<path d="m2463 23c4-3 10-3 14 0 3 4 0 7-7 7s-10-3-7-7z"/>
<path d="m805 10c3-5 8-10 11-10s2 5-1 10c-3 6-8 10-11 10s-2-4 1-10z"/>
<path d="m994 8c-4-7-3-8 4-4 12 7 16 16 8 16-3 0-8-5-12-12z"/>
<path d="m923 3c4-3 10-3 14 0 3 4 0 7-7 7s-10-3-7-7z"/>
<path d="m1793 3c4-3 10-3 14 0 3 4 0 7-7 7s-10-3-7-7z"/>
</g>
</svg>
