<?xml version="1.0" standalone="no"?>
<!DOCTYPE svg PUBLIC "-//W3C//DTD SVG 20010904//EN"
 "http://www.w3.org/TR/2001/REC-SVG-20010904/DTD/svg10.dtd">
<svg version="1.0" xmlns="http://www.w3.org/2000/svg"
 width="300.000000pt" height="201.000000pt" viewBox="0 0 300.000000 201.000000"
 preserveAspectRatio="xMidYMid meet">
<metadata>
Created by potrace 1.10, written by Peter Selinger 2001-2011
</metadata>
<g transform="translate(0.000000,201.000000) scale(0.050000,-0.050000)"
fill="#000000" stroke="none">
<path d="M2910 3420 c-7 -11 -42 -20 -77 -20 -86 0 -156 -50 -113 -80 23 -16
18 -18 -23 -9 -68 16 -89 -19 -48 -82 47 -72 -10 -167 -68 -113 -35 33 -35 35
1 67 49 43 50 80 2 61 -47 -18 -144 -95 -144 -114 0 -8 -30 -56 -67 -107 -134
-187 -181 -346 -162 -544 9 -82 6 -161 -7 -194 -95 -256 -67 -585 54 -630 46
-18 61 -40 79 -120 13 -54 45 -154 72 -222 27 -68 52 -170 55 -228 6 -98 39
-149 67 -104 7 11 57 -21 113 -70 55 -50 108 -91 118 -91 10 0 16 -7 14 -15
-3 -8 7 -35 20 -60 22 -39 21 -45 -10 -45 -34 0 57 -99 92 -101 39 -2 90 -62
65 -77 -17 -11 2 -21 56 -30 46 -7 78 -21 71 -32 -7 -11 2 -40 19 -64 17 -25
31 -60 31 -79 0 -43 -40 -70 -58 -40 -8 12 -56 24 -108 26 -52 2 -94 13 -94
25 0 12 -9 9 -19 -7 -11 -18 -11 -43 1 -64 10 -20 21 -72 23 -116 3 -44 16
-85 30 -90 24 -10 33 13 26 65 -6 48 39 81 100 73 33 -4 59 1 59 12 0 10 23
19 50 19 28 0 50 9 50 20 0 11 14 20 30 20 17 0 30 -18 30 -40 0 -22 12 -40
28 -40 15 0 39 -15 55 -34 23 -29 23 -31 -3 -16 -25 15 -26 12 -5 -13 13 -17
18 -38 10 -48 -15 -16 64 29 144 84 22 15 56 27 75 27 20 0 36 9 36 19 0 11
14 14 32 8 25 -10 26 -16 5 -29 -19 -12 -20 -17 -3 -18 13 0 31 12 40 26 9 15
37 41 63 58 44 30 44 33 8 44 -43 14 -53 72 -12 72 16 0 21 13 13 33 -8 21 -5
29 8 21 12 -8 27 7 33 31 7 25 4 48 -5 51 -10 3 -13 23 -8 45 6 21 19 34 29
27 10 -6 14 -17 9 -25 -5 -8 10 -16 34 -18 31 -2 36 2 16 14 -21 13 -19 21 11
38 20 12 28 22 16 22 -12 1 -30 -8 -41 -19 -12 -12 -27 -6 -43 19 -21 33 -19
37 16 31 21 -4 39 1 39 11 0 11 10 19 21 19 12 0 16 -11 9 -25 -7 -14 0 -9 16
11 27 33 30 30 43 -39 11 -55 19 -67 33 -46 15 25 21 25 37 -1 15 -22 25 -24
42 -7 17 17 12 34 -19 65 -47 47 -56 73 -17 49 16 -9 15 -2 -3 20 -22 27 -32
29 -45 9 -12 -19 -16 -19 -17 -2 0 13 14 32 31 41 26 15 25 22 -10 54 -37 33
-41 34 -41 4 0 -50 -39 -39 -60 17 -24 63 -35 63 -35 0 0 -27 8 -44 18 -38 9
5 17 1 17 -11 0 -11 14 -21 30 -21 17 0 30 -9 30 -19 0 -11 -15 -14 -33 -7
-21 8 -29 5 -20 -9 7 -11 -1 -26 -19 -33 -46 -18 -53 -15 -41 17 6 15 2 31
-10 35 -13 5 -12 40 4 104 20 76 20 99 0 112 -20 12 -20 17 -1 23 17 6 -3 49
-57 128 -102 146 -129 568 -32 488 157 -130 345 344 228 572 -31 60 -37 98
-27 159 48 284 10 610 -71 610 -17 0 -58 25 -91 55 -32 30 -66 53 -74 50 -22
-7 -60 72 -46 95 7 11 2 31 -9 45 -12 14 -39 49 -61 78 -28 37 -52 50 -80 43
-23 -6 -40 -1 -40 12 0 42 -211 126 -290 116 -96 -13 -103 -24 -42 -65 67 -44
67 -73 -1 -56 -45 11 -51 8 -40 -22 7 -19 13 -38 13 -43 0 -4 14 -8 30 -8 17
0 30 -9 30 -20 0 -20 -82 -30 -185 -22 -45 4 -55 -4 -55 -40 0 -41 -6 -43
-115 -32 -76 8 -104 6 -85 -7 25 -16 22 -26 -20 -60 l-50 -40 55 13 c37 8 55
4 55 -12 0 -17 16 -14 51 9 54 35 132 32 208 -8 27 -15 53 -17 67 -6 13 11 65
17 114 15 155 -6 236 70 140 130 -50 32 -68 22 -33 -17 18 -20 33 -49 32 -65
0 -19 -10 -16 -30 12 -17 22 -37 41 -45 42 -8 1 -30 8 -49 17 -69 30 -33 45
98 39 164 -8 231 -73 181 -175 -10 -21 -10 -33 -1 -27 49 30 134 -101 131
-201 -2 -39 5 -62 17 -55 22 14 23 9 29 -97 2 -42 16 -84 30 -93 15 -9 19 -26
9 -43 -14 -22 -11 -23 16 -1 44 36 78 -22 48 -85 -27 -57 -113 -25 -113 43 0
69 -35 72 -45 4 -5 -40 4 -77 30 -109 103 -132 88 -512 -25 -634 -20 -21 -31
-54 -26 -75 6 -23 -5 -45 -32 -59 -32 -17 -42 -17 -42 1 0 28 -67 -56 -86
-107 -7 -19 -3 -35 8 -35 11 0 14 -11 6 -25 -8 -14 9 -4 37 22 44 40 108 29
67 -12 -7 -6 -12 -1 -12 13 0 13 -9 19 -19 12 -13 -7 -13 -30 0 -62 14 -37 13
-47 -4 -36 -16 10 -20 4 -11 -19 7 -18 4 -33 -7 -33 -11 0 -15 -21 -8 -46 8
-32 -4 -62 -40 -101 -28 -30 -51 -60 -51 -66 0 -16 -127 -126 -145 -127 -8 0
-15 9 -15 21 0 14 -13 13 -41 -1 -22 -12 -35 -30 -29 -40 6 -9 2 -22 -8 -29
-26 -16 -43 40 -19 64 13 13 14 25 1 33 -11 6 -25 -10 -32 -36 -12 -50 -92
-54 -92 -5 0 13 -9 10 -20 -7 -25 -38 -25 -66 -1 -51 10 6 24 3 31 -9 20 -32
-42 -23 -70 10 -13 16 -33 24 -43 18 -26 -16 -121 9 -109 28 8 14 -19 21 -102
29 -13 1 -20 8 -15 17 5 8 -14 33 -41 55 -30 23 -43 45 -31 53 12 7 21 2 21
-10 0 -12 9 -17 20 -10 31 19 -23 65 -64 55 -20 -5 -36 0 -36 13 0 12 14 22
31 22 57 0 103 61 63 83 -43 24 -43 75 -2 134 35 49 339 52 397 4 14 -12 39
-17 55 -11 16 6 52 -9 80 -34 56 -51 108 -71 84 -34 -8 13 -16 52 -19 86 -15
171 -54 252 -124 252 -26 0 -45 12 -45 29 0 41 37 58 69 32 36 -30 56 23 32
87 -10 26 -13 53 -6 60 6 7 1 12 -13 12 -32 0 -85 129 -70 169 14 36 66 39
178 9 44 -12 101 -20 127 -20 25 1 63 -7 83 -18 49 -26 100 -5 100 40 0 50
-99 129 -214 171 -139 51 -155 76 -39 60 115 -17 113 17 -2 39 -254 51 -328
19 -325 -140 0 -6 -13 -43 -30 -83 -58 -139 -34 -286 44 -271 45 8 85 -19 86
-58 0 -16 -190 -6 -217 10 -11 7 -26 3 -34 -10 -10 -16 -19 -14 -31 5 -12 20
-22 21 -39 4 -33 -33 -6 -67 52 -67 56 0 63 -29 19 -73 -57 -57 -1 -118 61
-66 25 21 37 18 70 -18 51 -54 73 -54 89 -2 14 42 64 43 55 2 -3 -13 4 -23 14
-23 11 0 28 -17 39 -37 19 -34 14 -36 -84 -18 -57 10 -174 18 -259 19 -85 0
-155 8 -155 18 0 50 -110 -34 -113 -87 -5 -84 -8 -95 -27 -95 -11 0 -18 7 -15
15 2 8 -10 56 -28 105 -19 50 -39 124 -46 166 -7 41 -22 70 -32 63 -10 -6 -19
-2 -19 10 0 45 -4 52 -46 98 -59 62 -73 346 -26 541 17 72 35 200 40 284 4 83
20 173 35 200 47 84 199 258 225 258 14 0 36 23 48 50 13 28 37 50 54 50 16 0
30 10 30 21 0 12 -9 16 -20 9 -33 -20 -22 23 13 52 36 30 191 76 262 77 31 1
45 13 45 40 0 59 -102 106 -130 61z m510 -1330 c0 -32 -72 -40 -155 -17 -71
19 -31 47 66 47 66 0 89 -8 89 -30z m480 -31 c0 -12 -10 -15 -23 -7 -17 10
-20 -4 -11 -49 12 -60 -10 -86 -36 -43 -7 12 -21 15 -31 9 -28 -17 -23 59 5
87 30 30 96 32 96 3z m-120 -209 c0 -28 -27 -88 -60 -133 -57 -79 -60 -81 -60
-30 0 29 9 53 19 53 11 0 30 36 43 80 27 90 58 106 58 30z m-237 -788 c-6 -43
-4 -44 43 -13 86 56 131 -107 77 -282 -12 -41 -12 -70 1 -83 28 -28 1 -100
-48 -126 -36 -19 -40 -18 -29 11 16 43 -26 32 -55 -14 -29 -46 2 -69 52 -37
54 34 89 -11 45 -59 -16 -18 -23 -38 -16 -46 8 -7 -2 -13 -20 -13 -19 0 -44
23 -57 51 -28 62 -60 54 -86 -23 -14 -40 -35 -60 -70 -64 -28 -3 -53 -13 -56
-22 -3 -10 -34 -7 -68 5 -49 18 -64 18 -71 -3 -7 -20 -15 -20 -37 -2 -41 33
-34 56 12 44 29 -8 40 -1 40 24 0 23 -10 30 -32 22 -22 -9 -29 -4 -22 16 8 19
-9 32 -52 42 -35 7 -53 18 -39 24 19 7 18 19 -5 52 -17 24 -30 63 -30 87 0 25
-10 51 -23 59 -14 9 -2 25 35 44 53 28 55 31 18 46 -22 8 -31 16 -20 17 11 1
42 7 68 14 38 11 45 7 31 -15 -23 -39 43 12 113 87 49 52 93 76 69 37 -6 -10
2 -23 18 -29 19 -7 25 -1 18 16 -6 18 7 30 36 35 26 4 45 18 42 31 -3 14 9 25
25 25 17 0 30 14 30 31 0 19 9 26 23 17 16 -10 20 -3 10 20 -9 24 -5 32 12 27
14 -5 22 -29 18 -53z"/>
<path d="M3421 831 c-19 -22 -35 -25 -63 -10 -27 14 -38 14 -38 -1 0 -13 -10
-16 -23 -8 -15 9 -18 5 -8 -10 8 -13 32 -18 55 -11 27 9 36 6 27 -9 -7 -12 -1
-22 13 -22 15 0 38 19 53 42 31 50 19 72 -16 29z"/>
<path d="M3137 718 c-23 -15 -22 -17 1 -18 15 0 39 -15 53 -34 22 -31 29 -31
61 -5 21 17 30 19 21 4 -9 -14 -6 -25 6 -25 24 0 27 39 6 73 -18 26 -109 29
-148 5z"/>
<path d="M3089 644 c-56 -41 -13 -74 46 -37 16 9 30 3 37 -16 16 -40 48 -40
48 -1 0 17 -7 28 -15 26 -8 -3 -33 6 -56 18 -23 13 -50 17 -60 10z"/>
<path d="M2579 2885 c-27 -36 -34 -58 -20 -72 31 -31 25 -53 -14 -53 -30 1
-31 3 -5 20 18 12 20 20 6 20 -37 0 -53 -39 -49 -128 1 -53 -4 -72 -15 -55
-23 37 -43 0 -29 -53 11 -41 127 -8 127 36 0 6 24 36 53 68 l53 57 -48 39
c-26 22 -37 34 -23 27 15 -8 25 -1 25 18 0 17 14 31 30 31 17 0 30 9 30 19 0
11 14 15 30 8 22 -8 27 -2 18 20 -6 18 -18 31 -25 30 -7 -1 -17 0 -23 2 -50
20 -86 10 -121 -34z"/>
<path d="M2856 2835 c21 -25 20 -36 -7 -63 -29 -29 -28 -32 20 -32 28 0 58 -1
66 -1 7 -1 17 7 21 18 3 11 -12 15 -35 9 -34 -9 -40 -2 -36 34 3 26 -8 50 -25
56 -25 9 -26 5 -4 -21z"/>
<path d="M3280 2778 c0 -12 -14 -17 -31 -10 -17 6 -35 -1 -42 -18 -6 -16 -19
-25 -29 -19 -10 6 -18 -3 -18 -20 0 -17 -9 -31 -20 -31 -11 0 -20 -14 -20 -31
0 -21 16 -31 45 -28 105 8 135 -1 135 -41 0 -23 20 -49 45 -60 25 -11 63 -33
85 -49 38 -28 40 -25 41 49 1 75 -1 77 -60 67 -51 -8 -55 -6 -26 13 20 12 31
31 24 41 -17 28 19 23 50 -6 22 -21 23 -18 6 13 -11 21 -16 57 -12 80 7 40 7
40 -9 3 -17 -37 -19 -37 -53 15 -35 53 -111 75 -111 32z"/>
<path d="M2996 2736 c30 -30 31 -76 3 -76 -12 0 -16 9 -9 20 17 28 -17 25 -46
-4 -42 -42 -26 -56 57 -48 101 10 120 27 70 64 -21 15 -28 28 -15 28 13 0 24
9 24 20 0 11 -24 20 -54 20 -42 0 -49 -5 -30 -24z"/>
<path d="M2540 2342 c-49 -19 -101 -38 -114 -43 -14 -5 -29 -48 -35 -96 -10
-78 -7 -86 24 -71 19 9 108 14 196 11 164 -6 233 21 199 77 -7 12 0 43 17 68
31 47 13 92 -36 92 -12 0 -7 -9 9 -20 23 -15 18 -19 -24 -20 -29 0 -59 9 -66
20 -16 26 -61 22 -170 -18z"/>
<path d="M2500 2080 c0 -11 31 -20 69 -20 38 0 74 9 81 20 7 12 -20 20 -69 20
-44 0 -81 -9 -81 -20z"/>
<path d="M3443 1837 c-34 -31 -70 -57 -82 -57 -12 0 -21 -14 -21 -32 0 -21
-11 -28 -31 -20 -23 8 -30 2 -25 -23 4 -20 22 -33 42 -29 39 7 44 -21 13 -77
-13 -25 -13 -39 -1 -39 26 0 51 130 32 161 -11 17 -4 17 28 0 35 -19 45 -17
56 13 14 35 30 58 81 115 62 70 -16 59 -92 -12z"/>
<path d="M2680 1850 c-14 -16 -36 -30 -49 -30 -13 0 -39 -31 -57 -70 -33 -68
-74 -94 -74 -46 0 15 -7 17 -19 5 -22 -22 -5 -109 21 -109 10 0 28 17 41 38
13 21 35 34 48 29 29 -11 149 135 149 181 0 40 -27 41 -60 2z"/>
<path d="M2801 1289 c17 -21 19 -37 5 -51 -73 -73 107 -181 228 -136 50 18 77
78 36 78 -16 0 -26 -11 -23 -25 4 -14 2 -18 -2 -9 -5 9 -33 26 -62 38 -42 18
-46 24 -18 31 19 4 35 17 35 28 0 10 -7 15 -15 11 -8 -5 -33 -2 -55 7 -40 16
-40 16 0 18 70 3 -11 40 -87 41 -59 0 -65 -4 -42 -31z"/>
<path d="M3171 1158 c11 -37 7 -40 -34 -28 -46 14 -46 13 -7 -17 39 -30 39
-31 -5 -20 -38 10 -43 6 -31 -26 30 -80 86 -111 86 -47 0 22 9 40 20 40 11 0
20 -11 20 -25 1 -18 6 -17 18 3 14 22 20 20 28 -10 8 -32 10 -31 12 7 1 25 -7
45 -18 45 -11 0 -21 16 -21 35 -2 30 -4 29 -19 -5 -19 -43 -27 -26 -21 45 2
25 -6 45 -19 45 -14 0 -18 -16 -9 -42z"/>
<path d="M2430 933 c-62 -84 -126 -192 -150 -253 -15 -38 -36 -76 -46 -83 -26
-17 1 -57 38 -57 17 0 25 9 18 20 -20 33 3 23 33 -14 15 -18 17 -28 4 -20 -13
8 -28 -1 -35 -18 -9 -24 -4 -29 22 -19 29 11 28 6 -5 -32 -22 -24 -29 -38 -16
-31 13 8 28 0 34 -16 7 -17 26 -30 45 -30 20 0 28 -11 21 -29 -6 -15 7 -64 28
-109 22 -44 39 -88 39 -98 0 -9 24 -39 53 -66 l52 -48 -37 70 c-33 62 -38 117
-38 458 0 376 -11 442 -60 375z"/>
<path d="M4000 818 c0 -10 13 -24 30 -31 22 -8 24 -20 9 -49 -16 -30 -14 -38
10 -38 28 0 34 -12 30 -52 -1 -6 21 -31 50 -55 28 -24 51 -55 51 -68 0 -12 16
-33 35 -44 27 -17 14 -19 -55 -10 -49 7 -99 19 -110 26 -11 8 -47 14 -80 13
-34 0 -66 13 -74 30 -8 19 -14 8 -15 -30 -1 -46 -6 -53 -21 -30 -29 45 -26
-71 3 -126 23 -44 23 -44 -20 -6 l-43 38 33 -67 c24 -48 27 -69 10 -75 -12 -4
-23 -14 -23 -22 0 -21 59 -19 63 1 1 10 3 27 5 40 1 13 19 29 41 37 26 9 31
18 15 28 -36 22 -29 46 16 58 34 9 38 3 27 -40 -8 -33 -3 -56 15 -68 37 -23
58 -22 58 2 0 11 -10 18 -22 15 -13 -3 -25 11 -29 30 -3 20 7 35 24 35 16 0
24 -9 17 -20 -7 -11 -3 -20 9 -20 30 0 26 21 -12 63 -22 24 -25 37 -9 37 13 0
19 9 12 20 -7 11 -3 20 8 20 35 0 202 -87 202 -105 0 -10 -9 -12 -20 -5 -31
19 -23 -4 14 -41 32 -32 31 -33 -12 -19 -36 11 -44 8 -32 -13 13 -22 11 -22
-11 -2 -21 19 -34 18 -63 -8 -25 -24 -36 -26 -36 -8 0 20 -6 21 -29 2 -16 -14
-39 -19 -50 -12 -12 8 -21 4 -21 -8 0 -19 42 -30 85 -23 8 1 15 -8 15 -21 0
-13 17 -7 40 13 51 46 77 22 41 -36 -25 -39 -24 -41 4 -18 27 22 35 20 53 -10
11 -20 21 -26 21 -13 1 13 18 19 41 13 30 -8 40 -1 40 27 0 22 -6 28 -15 15
-8 -12 -31 -22 -50 -22 -33 1 -33 3 -1 38 32 35 32 37 0 25 -19 -8 -34 -4 -34
9 0 29 45 28 110 -2 46 -21 57 -18 101 29 56 60 63 85 20 68 -17 -6 -36 -1
-43 11 -8 13 -5 17 7 9 12 -7 25 -4 29 8 4 14 23 15 55 3 l49 -18 -53 -45
c-28 -25 -57 -67 -64 -93 -6 -26 -21 -48 -33 -48 -11 0 -15 11 -8 25 7 14 -4
6 -24 -17 -48 -54 -215 -94 -328 -79 -234 31 -244 29 -263 -44 -10 -40 -4 -45
57 -45 41 0 68 10 68 25 1 18 5 19 15 2 35 -54 413 -11 392 45 -7 17 1 28 21
28 18 0 32 7 32 17 0 9 28 16 63 16 34 0 73 14 85 30 12 17 33 27 47 22 17 -6
21 3 12 27 -9 23 -6 30 9 20 14 -8 28 5 35 35 9 36 22 46 51 38 22 -5 55 5 75
23 20 17 42 26 50 19 23 -23 14 -47 -17 -47 -16 0 -30 -11 -30 -23 0 -13 -14
-40 -32 -59 -29 -33 -29 -34 10 -24 24 6 42 1 42 -12 0 -12 -26 -22 -57 -22
-31 0 -79 -19 -105 -42 l-48 -43 48 15 c32 10 43 7 33 -8 -7 -12 -26 -22 -42
-22 -16 0 -29 -10 -29 -22 0 -17 -7 -17 -27 -1 -20 17 -26 16 -26 -4 0 -17 30
-26 91 -28 51 -1 75 3 54 9 -30 8 -32 14 -10 27 17 11 40 5 61 -14 31 -28 33
-27 22 14 -8 31 -4 41 12 31 13 -8 23 -27 23 -43 0 -16 8 -29 18 -29 26 0 16
67 -13 86 -14 9 -21 25 -14 35 6 11 25 6 42 -11 16 -16 23 -40 16 -52 -9 -14
0 -19 24 -14 23 5 35 21 31 44 -4 21 2 31 15 23 35 -22 24 -67 -21 -81 -22 -8
-37 -18 -31 -23 12 -13 98 32 117 60 8 12 3 30 -10 39 -15 11 -7 14 21 8 59
-13 78 18 20 34 -37 10 -40 15 -16 31 20 12 35 11 44 -4 10 -17 25 -14 52 11
21 19 45 28 53 20 8 -8 22 -2 32 14 10 16 23 23 30 17 7 -7 -15 -44 -49 -83
-33 -38 -61 -80 -61 -93 0 -13 -8 -19 -17 -13 -9 6 -34 -2 -55 -19 -35 -26
-31 -28 47 -24 80 5 101 21 106 85 1 11 21 31 45 44 26 15 32 25 16 25 -16 1
-24 6 -18 11 16 17 77 -12 66 -30 -6 -9 2 -29 16 -44 28 -28 24 -76 -7 -76
-10 0 -13 14 -6 30 6 17 1 30 -11 30 -12 0 -22 -15 -22 -32 0 -23 -12 -29 -40
-22 -22 6 -40 2 -40 -8 0 -10 63 -18 140 -18 163 0 175 20 89 145 -46 69 -77
85 -144 77 -15 -2 -20 10 -11 32 7 20 5 30 -3 22 -9 -8 -29 -1 -45 15 -25 25
-33 25 -59 -1 -16 -17 -45 -29 -63 -29 -24 1 -21 7 11 20 67 26 56 61 -15 49
-54 -9 -66 -2 -105 64 -35 60 -46 68 -52 38 -4 -20 5 -45 20 -54 15 -10 18
-18 6 -18 -12 0 -33 11 -48 25 -19 19 -28 19 -35 1 -5 -14 -35 -19 -82 -13
-56 8 -67 5 -44 -11 26 -18 25 -21 -7 -22 -29 0 -35 10 -26 43 8 31 5 37 -11
21 -14 -14 -35 -15 -55 -4 -19 9 -45 10 -61 0 -16 -10 -43 -9 -64 2 -24 13
-36 12 -36 -1 0 -32 -72 -25 -100 9 -14 17 -20 37 -13 44 7 7 13 2 13 -11 0
-12 10 -23 22 -23 17 0 17 7 0 27 -12 15 -42 24 -67 19 -33 -6 -53 6 -77 48
-34 58 -30 116 6 94 12 -8 11 5 -3 30 -19 35 -17 42 13 44 20 0 -7 16 -60 35
-53 19 -92 38 -86 44 5 5 -17 25 -49 43 -33 19 -59 25 -59 14z m927 -544 c-1
-19 12 -30 34 -28 27 2 31 9 17 26 -12 15 -13 29 -1 36 10 6 33 -10 50 -36 33
-50 26 -76 -17 -59 -14 5 -32 -1 -40 -14 -11 -17 -20 -16 -34 4 -13 19 -15 15
-7 -16 11 -38 5 -42 -53 -37 -89 8 -90 8 -60 27 22 14 21 23 -5 49 -39 39 -41
67 -2 35 23 -19 33 -15 51 19 25 47 71 43 67 -6z"/>
<path d="M2156 718 c-37 -27 -50 -51 -41 -74 10 -29 8 -30 -19 -9 -26 22 -29
18 -21 -25 9 -48 6 -50 -72 -45 -45 3 -82 -3 -81 -13 1 -10 -11 -25 -25 -35
-22 -14 -22 -20 1 -35 21 -14 18 -21 -17 -32 -24 -7 -49 -8 -56 -2 -6 7 -1 12
12 12 12 0 22 25 21 55 -2 30 -7 40 -11 22 -10 -35 -132 -68 -168 -46 -12 7
-36 0 -54 -14 -28 -23 -31 -22 -20 6 16 44 -36 36 -70 -10 -18 -25 -58 -36
-135 -39 -80 -3 -121 -15 -156 -48 -27 -25 -57 -43 -67 -40 -11 2 -39 -32 -63
-75 -24 -43 -55 -91 -69 -106 -23 -26 -28 -43 -23 -78 1 -7 -10 -19 -23 -28
-46 -28 0 -53 100 -54 74 0 101 7 101 27 0 15 9 28 20 28 12 0 12 18 -1 52
-10 28 -14 60 -8 70 6 10 2 18 -10 18 -11 0 -21 10 -21 21 0 12 10 15 23 7 14
-9 18 -5 9 9 -8 13 -5 23 6 23 11 0 16 12 11 26 -6 15 6 25 31 25 22 0 41 -13
42 -30 1 -21 4 -23 11 -6 6 14 19 25 30 25 11 0 14 -9 7 -20 -7 -11 2 -26 19
-32 17 -7 31 -25 31 -41 0 -29 -92 16 -125 63 -9 13 -14 13 -14 0 1 -39 50
-84 109 -100 l60 -16 -50 -15 c-27 -8 -38 -16 -24 -17 21 -2 21 -7 0 -30 -14
-15 -34 -23 -44 -17 -10 6 -12 0 -3 -13 8 -14 32 -18 56 -11 30 10 38 6 30
-14 -8 -22 23 -28 146 -30 126 -2 154 3 145 25 -12 33 -40 37 -50 7 -3 -11
-27 -2 -51 21 -41 38 -54 36 -47 -5 3 -24 -18 -17 -51 15 -40 40 -69 38 -53
-3 9 -23 5 -29 -11 -19 -46 29 -25 72 36 72 32 0 64 9 71 20 8 12 29 2 51 -25
24 -29 44 -37 54 -24 27 37 107 31 101 -7 -4 -23 6 -32 29 -28 23 4 31 -4 23
-24 -12 -33 77 -34 162 -3 32 12 34 10 10 -7 -24 -17 -20 -21 24 -22 50 0 52
3 35 64 -12 41 -11 72 1 84 13 13 20 8 20 -15 0 -20 9 -30 21 -22 14 8 14 21
-2 41 -40 47 -76 33 -70 -26 6 -51 5 -52 -21 -16 -16 21 -28 51 -28 67 0 16
-6 24 -14 16 -22 -23 -106 71 -106 119 0 45 -61 82 -98 59 -10 -6 -23 4 -30
22 -10 24 -3 29 27 21 22 -5 38 -1 35 11 -2 11 8 24 22 29 14 6 23 -2 20 -16
-3 -14 3 -27 14 -27 11 -1 31 -9 45 -17 14 -10 25 -7 25 5 0 11 11 19 24 16
15 -3 25 19 25 55 1 48 10 60 46 62 53 3 54 -4 16 -78 -16 -30 -21 -50 -10
-43 10 6 19 2 19 -9 0 -11 15 -15 34 -8 30 12 29 15 -5 27 -36 14 -35 16 11
36 28 11 39 21 25 22 -14 0 -25 9 -25 19 0 10 19 13 43 7 37 -10 42 -5 32 32
-6 24 -4 43 6 43 9 0 22 17 28 38 7 21 36 61 64 90 63 62 22 70 -57 10z m-493
-298 c1 -11 3 -30 5 -42 1 -11 20 -34 42 -50 40 -30 30 -48 -40 -75 -11 -4
-13 -15 -5 -23 8 -9 28 -4 45 10 16 14 30 18 30 10 0 -8 14 -4 30 10 17 14 30
16 30 5 0 -30 -51 -67 -70 -50 -9 8 -10 4 -2 -10 11 -18 25 -20 53 -4 28 14
39 14 39 -1 0 -13 9 -17 20 -10 11 7 20 3 20 -9 0 -19 -29 -29 -47 -16 -4 3
-22 -7 -40 -22 -23 -20 -33 -21 -33 -4 0 13 -10 17 -25 8 -50 -31 -107 -21
-160 29 -30 28 -55 41 -55 28 0 -13 -10 -24 -21 -24 -12 0 -15 11 -6 25 10 17
4 16 -19 -2 -20 -17 -34 -19 -34 -7 0 12 9 27 20 34 28 17 -62 124 -100 119
-17 -2 -19 1 -5 5 14 5 20 17 14 28 -17 27 19 22 50 -7 21 -20 24 -20 13 0
-18 32 32 33 64 1 13 -13 24 -44 24 -69 0 -24 10 -51 23 -59 15 -9 18 -5 7 12
-12 19 -8 23 16 14 21 -8 36 2 45 29 9 30 19 35 35 19 12 -12 31 -22 43 -21
12 0 6 9 -13 20 -19 11 -29 33 -23 50 6 16 1 29 -12 29 -13 0 -18 9 -11 20 7
11 21 20 31 20 11 0 20 -9 22 -20z m-92 -35 c14 -10 7 -29 -18 -53 -33 -32
-38 -33 -27 -5 7 18 4 33 -7 33 -10 0 -19 9 -19 20 0 23 41 26 71 5z m309
-266 c0 -12 8 -16 19 -10 10 6 24 3 31 -9 7 -11 -3 -20 -21 -20 -21 0 -29 -11
-22 -30 7 -19 0 -30 -19 -30 -17 0 -25 9 -18 20 7 11 3 20 -9 20 -11 0 -21 18
-21 40 0 22 13 40 30 40 17 0 30 -10 30 -21z"/>
<path d="M1591 249 c-34 -25 -34 -29 -5 -29 19 0 34 -10 34 -21 0 -12 -9 -16
-20 -9 -33 20 -23 -3 14 -33 19 -15 28 -17 20 -3 -8 13 -6 29 6 36 11 7 20 3
20 -9 0 -11 11 -21 23 -21 13 0 4 21 -20 46 -24 26 -37 53 -30 60 24 24 -2 14
-42 -17z"/>
<path d="M4295 665 c-27 -6 -29 -13 -10 -34 18 -19 29 -20 40 -4 10 17 14 16
15 -2 0 -14 18 -25 40 -25 22 0 40 10 40 22 0 12 -14 17 -31 10 -17 -6 -26 -4
-20 6 13 22 -28 37 -74 27z"/>
<path d="M1747 609 c-7 -17 -6 -36 1 -43 6 -7 12 2 12 21 0 36 31 44 50 13 7
-11 2 -20 -10 -20 -12 0 -17 -9 -10 -20 8 -12 22 -10 40 5 23 21 23 29 -5 50
-43 33 -64 32 -78 -6z"/>
<path d="M4450 599 c11 -17 -59 -29 -123 -21 -13 2 -30 -7 -38 -19 -10 -16 13
-22 74 -18 138 7 153 3 108 -32 -57 -43 -57 -85 1 -73 33 6 48 22 48 51 1 30
6 35 17 17 9 -14 31 -20 50 -13 18 8 33 4 33 -9 0 -12 -10 -22 -23 -22 -13 0
-17 -6 -9 -14 24 -25 160 -19 201 8 35 23 35 26 5 26 -18 0 -34 8 -34 18 0 10
-18 14 -40 8 -22 -6 -34 -20 -26 -32 7 -11 -11 -4 -40 18 -29 21 -53 44 -53
52 -1 8 -16 9 -34 2 -21 -8 -29 -5 -20 9 7 12 -13 30 -48 42 -36 13 -56 14
-49 2z"/>
<path d="M2220 370 c0 -13 20 -24 45 -22 52 2 66 -76 15 -81 -16 -1 -41 -3
-55 -5 -51 -4 -23 -32 33 -32 32 0 55 4 51 8 -5 5 1 20 13 35 37 44 6 117 -51
120 -29 2 -51 -8 -51 -23z"/>
<path d="M2160 360 c-16 -11 -50 -20 -75 -20 -59 0 -57 -31 6 -113 28 -37 53
-92 56 -121 3 -39 18 -58 53 -68 42 -12 44 -15 10 -18 -28 -2 -31 -7 -12 -14
16 -6 40 4 53 22 20 28 29 29 52 8 35 -34 147 -48 128 -17 -8 13 -6 34 5 47
10 13 13 42 4 64 -14 39 -14 39 -28 -3 -16 -50 -100 -40 -208 24 -57 33 -101
119 -75 145 6 6 11 1 11 -11 0 -15 19 -17 60 -5 64 18 71 20 95 20 8 0 2 9
-14 19 -16 10 -39 12 -50 4 -19 -14 -34 -15 -85 -5 -7 1 4 15 25 31 44 33 35
41 -11 11z"/>
<path d="M3938 255 c-17 -53 -15 -119 3 -89 19 30 27 32 54 10 26 -21 25 -15
-4 29 -32 49 -48 64 -53 50z"/>
<path d="M3597 132 c-13 -9 -5 -132 9 -132 10 0 13 13 7 29 -6 17 2 43 18 59
36 36 9 70 -34 44z"/>
</g>
</svg>
