<?xml version="1.0" encoding="UTF-8"?>
<!DOCTYPE svg  PUBLIC '-//W3C//DTD SVG 20010904//EN'  'http://www.w3.org/TR/2001/REC-SVG-20010904/DTD/svg10.dtd'>
<svg width="300pt" height="201pt" version="1.0" viewBox="0 0 300 201" xmlns="http://www.w3.org/2000/svg">
<metadata>Created by potrace 1.10, written by Peter Selinger 2001-2011</metadata>
<g transform="translate(0 201) scale(.1 -.1)">
<path d="m1332 1752c-10-3-8-7 4-16 15-11 13-14-15-25-17-8-29-17-26-21 4-7-136-42-143-36-1 2 9 17 23 34l26 31-25 7c-31 8-68-17-116-80-19-25-40-45-47-46-6 0-15-5-19-12s-3-8 4-4c15 9 15-7 1-21-12-12-26-48-93-241-37-105-44-137-46-215-2-51-4-114-5-142-1-27 2-67 7-89 5-21 10-51 10-67 1-15 5-26 10-23 4 3 8-2 8-10 0-9 5-16 10-16 6 0 10-6 10-12 0-20 54-137 64-138 4 0 4 8 0 18-4 9-10 51-12 92-3 69-2 73 12 55 20-26 20-23-9 70-27 87-31 115-14 115 5 0 8-4 5-9-4-5 5-22 18-38 13-15 31-50 40-78 10-27 30-79 46-115 32-75 48-164 30-175-6-4-36-45-67-92-61-92-54-86-293-233-74-45-144-88-155-95s-47-38-80-68l-60-56 393-1c218 0 392 4 392 9s-7 25-15 44c-19 47-20 97-1 97 24 0 46 30 46 61 0 34-11 58-49 108s-52 97-34 113c10 8 13 22 9 40-3 15-1 28 4 28 6 0 10-4 10-9 0-12 44-55 61-59 20-5 49-33 44-42-3-5 6-22 20-38 25-29 25-31 6-37-13-4-23-19-27-41-3-19-11-34-16-34-6 0-3-11 6-25s14-31 10-37c-4-7-3-8 4-4s12 2 12-4c0-15 32-6 91 25l46 24 22-29c12-17 28-30 36-30 23 0 19-10-35-80-27-36-49-68-50-72 0-5 261-8 580-8h581l-35 67c-32 62-42 72-118 120-46 28-103 61-128 71-121 52-387 177-401 189-8 7-23 13-32 13s-17 5-17 10c0 6-7 10-15 10-26 0-28 28-6 56 12 15 21 32 21 38s-9-3-19-20c-27-44-36-47-51-19-7 13-16 22-20 20-3-2-21 22-39 53-25 44-30 60-22 72 22 31 53 97 68 144 8 27 23 65 34 85l19 35-6-55c-3-30-17-89-31-132s-23-80-20-83c2-2 12 20 21 51 10 30 21 53 26 50 4-3 11 7 15 23l7 27 10-25c6-14 10-68 11-120 1-95 14-92 16 3 1 27 4 46 9 44 8-6 6 75-3 112-6 25-6 25 14 7 24-22 40-66 57-156 11-59 12-61 14-25l2 40 10-35c5-19 7-57 4-85-4-34-2-45 4-35 26 41-1 228-49 333-23 49-32 84-37 142-3 29-2 35 5 20 6-14 10 13 12 85 3 89 0 117-19 180-40 128-126 284-189 341-43 40-110 79-135 79-20-1-21-2-6-10 19-12 14-46-9-54-24-10-61 4-78 30-9 14-25 24-39 24-13 0-29 6-35 14-13 15-49 25-69 18zm172-194c35-36 50-73 53-136 2-51 7-70 22-82 10-8 21-25 23-37 5-19-1-23-61-38-36-9-87-28-114-42l-47-26-23 21c-36 34-76 44-142 36-32-3-66-10-75-15-8-4-27-10-42-14-16-3-28-12-28-20s-4-15-8-15c-13 0 1 80 20 117 9 18 20 47 23 65 21 98 88 162 192 187 59 14 192 13 207-1zm-346-359c20 0 30-3 22-6-29-11-70-45-70-58 0-7 14-15 30-17 17-3 30-1 30 4 0 17 21 7 29-14 5-15 4-26-3-30-6-4 8-8 32-8 33 0 49 6 68 25 14 14 29 25 34 25 6 0 10 8 10 18 0 14 2 15 10 2 8-12 10-11 10 8 0 26 9 28 36 7 19-14 18-15-6-34-13-11-27-18-31-15-4 2-17-24-30-57-21-59-25-63-83-90-34-16-72-30-86-30-17-1-19-3-8-6 10-2 43 1 73 7 48 10 60 17 87 53 16 23 39 61 51 84 11 23 27 45 35 48 32 12 37-8 44-157 0-18-8-35-23-48-23-19-35-20-69-6-19 8-45-8-36-23 4-6 19-11 34-12 26 0 26-1 5-9-13-5-23-13-23-18s-26-17-57-27c-64-19-93-45-93-81 0-15-6-24-15-24-19 0-55 36-55 54 0 8-8 30-19 48-10 18-22 52-25 76-4 24-11 52-16 62-6 11-14 28-19 39-6 10-7 29-4 41 6 22 6 21 18-6l12-29 2 30c0 17 1 49 0 72 0 28 7 49 18 60 10 10 17 27 15 37-3 14 0 17 13 12 9-3 33-6 53-7zm-88-26c0-5-7-17-15-27-15-20-15-20-15 0 0 12 3 24 7 27 9 9 23 9 23 0zm137-10c-4-3-10-3-14 0-3 4 0 7 7 7s10-3 7-7zm-167-63c0-13-6-20-17-19-11 0-13 3-5 6 6 2 12 11 12 19s2 14 5 14 5-9 5-20zm630-64c0-3-4-8-10-11-5-3-10-1-10 4 0 6 5 11 10 11 6 0 10-2 10-4zm41-56c-13-11-31-20-40-20-10 0-5 7 14 19 39 26 56 26 26 1zm-123-50c32-20 41-49 17-56-15-5-52 28-60 54-8 27 1 28 43 2zm339-87c-4-3-7 0-7 7s3 10 7 7c3-4 3-10 0-14zm10-35c-3-8-6-5-6 6-1 11 2 17 5 13 3-3 4-12 1-19zm-512-8c3-5 1-10-4-10-6 0-11 5-11 10 0 6 2 10 4 10 3 0 8-4 11-10zm-498-37c-4-3-7 0-7 7s3 10 7 7c3-4 3-10 0-14zm465-34c15 0 30-4 33-9 6-10-7-14-31-11-26 3-64-19-58-34 4-9 1-15-9-15-24 0-27-27-6-54 27-35 20-50-24-52-33-3-38 1-70 49-46 70-50 92-23 111 31 20 63 25 116 19 25-2 57-4 72-4z"/>
<path d="m1927 936c20-26 27-28 17-3-3 8-12 18-20 21-11 4-10 0 3-18z"/>
<path d="m883 710c0-25 2-35 4-22 2 12 2 32 0 45-2 12-4 2-4-23z"/>
<path d="m1931 664c0-11 3-14 6-6 3 7 2 16-1 19-3 4-6-2-5-13z"/>
<path d="m881 644c0-11 3-14 6-6 3 7 2 16-1 19-3 4-6-2-5-13z"/>
<path d="m1753 625c0-22 2-30 4-17 2 12 2 30 0 40-3 9-5-1-4-23z"/>
<path d="m1920 630c0-7 3-10 7-7 3 4 3 10 0 14-4 3-7 0-7-7z"/>
<path d="m1930 600c0-7 3-10 7-7 3 4 3 10 0 14-4 3-7 0-7-7z"/>
<path d="m1930 570c0-7 3-10 7-7 3 4 3 10 0 14-4 3-7 0-7-7z"/>
<path d="m882 455c44-40 48-41 79-16l23 18-33-5c-23-3-41 2-61 17-45 33-49 24-8-14z"/>
</g>
</svg>
