<?xml version="1.0" standalone="no"?>
<!DOCTYPE svg PUBLIC "-//W3C//DTD SVG 20010904//EN"
 "http://www.w3.org/TR/2001/REC-SVG-20010904/DTD/svg10.dtd">
<svg version="1.0" xmlns="http://www.w3.org/2000/svg"
 width="300.000000pt" height="201.000000pt" viewBox="0 0 300.000000 201.000000"
 preserveAspectRatio="xMidYMid meet">
<metadata>
Created by potrace 1.10, written by Peter Selinger 2001-2011
</metadata>
<g transform="translate(0.000000,201.000000) scale(0.050000,-0.050000)"
fill="#000000" stroke="none">
<path d="M2580 3540 c-16 -11 -70 -20 -120 -20 -148 0 -500 -291 -500 -412 0
-31 -44 -169 -98 -307 -135 -347 -141 -376 -149 -675 -6 -247 -10 -269 -60
-345 -79 -120 -69 -206 41 -324 36 -38 54 -88 66 -180 9 -70 35 -180 58 -245
54 -152 44 -158 -71 -45 -51 51 -96 93 -99 93 -18 0 16 -92 46 -126 36 -40 36
-40 -20 -4 -30 19 -60 30 -66 24 -16 -16 194 -134 238 -134 109 0 185 118 166
258 -26 183 -29 262 -11 262 11 0 20 -16 21 -35 0 -20 5 -25 11 -11 6 14 -4
44 -20 68 -16 23 -25 54 -20 69 7 18 -2 23 -31 15 -32 -8 -42 -1 -42 27 1 31
4 32 19 7 30 -46 71 4 44 53 -37 66 -99 257 -104 318 -11 130 1 209 31 209 23
0 27 -21 19 -107 -8 -84 -2 -116 28 -155 20 -26 62 -120 93 -208 30 -88 68
-181 84 -206 16 -26 37 -97 47 -158 l18 -112 -131 -195 c-136 -204 -148 -214
-468 -408 -411 -248 -494 -305 -610 -416 l-120 -115 178 5 c121 3 181 13 187
30 5 14 -6 25 -23 25 -45 0 -40 34 9 60 22 12 35 31 28 41 -6 10 8 19 31 19
23 0 37 8 31 18 -6 11 16 38 49 62 75 53 75 47 -5 -106 -36 -68 -68 -131 -72
-139 -25 -56 120 -8 149 50 43 83 247 395 258 395 16 0 -51 -167 -120 -297
-41 -76 -62 -139 -52 -149 39 -39 86 2 136 116 117 271 171 379 180 356 4 -12
-9 -57 -30 -100 -49 -98 -69 -181 -46 -195 18 -11 48 40 174 294 69 138 131
181 123 85 -2 -28 -10 -50 -17 -50 -12 0 -42 -80 -46 -125 -1 -8 -9 -15 -18
-14 -24 1 -92 -88 -81 -106 19 -30 47 -14 47 27 0 36 5 39 30 18 26 -21 29
-20 20 4 -9 23 1 27 48 21 42 -7 58 -20 57 -45 -2 -20 -14 -31 -29 -26 -39 15
-31 -23 14 -64 21 -19 35 -42 30 -50 -5 -9 6 -14 25 -13 19 2 34 -8 35 -21 0
-13 11 -35 23 -47 13 -13 19 -36 13 -51 -8 -22 16 -28 112 -28 118 0 140 11
105 51 -39 45 -106 248 -116 349 -5 61 -27 203 -48 316 -44 232 -49 355 -17
375 12 8 18 40 13 71 -10 73 -20 80 104 -73 58 -72 110 -126 115 -122 5 5 50
-9 101 -31 113 -50 333 -54 423 -7 175 90 498 530 533 724 8 42 26 100 41 127
15 28 38 91 52 140 l25 90 7 -90 c7 -95 -5 -147 -98 -416 -35 -99 -57 -204
-56 -260 l1 -94 25 113 c13 62 34 125 46 140 24 29 26 36 26 98 0 23 9 36 20
29 11 -7 20 4 21 24 0 20 13 63 27 96 24 54 27 34 28 -195 1 -228 -4 -264 -46
-346 l-46 -93 45 43 c55 52 90 163 93 293 2 79 5 88 18 48 19 -58 10 158 -11
270 -8 42 -5 70 6 70 34 0 109 -202 108 -288 -5 -273 -16 -393 -38 -415 -14
-14 -25 -16 -25 -5 0 11 11 32 25 47 20 21 20 24 0 13 -18 -10 -25 4 -25 50 0
36 -6 59 -13 52 -15 -16 -13 -195 4 -212 7 -6 38 20 70 58 32 39 58 58 58 42
1 -40 -135 -162 -180 -162 -22 0 -39 9 -39 20 0 11 -13 20 -28 20 -37 0 -132
113 -132 157 -1 26 -4 27 -18 6 -12 -20 -32 1 -74 77 l-57 105 -16 -76 c-14
-65 -71 -214 -138 -360 -11 -22 -22 -54 -24 -70 -30 -170 -128 -321 -169 -261
-19 28 -24 28 -43 2 -55 -80 17 -164 100 -116 32 19 59 25 59 14 0 -11 8 -15
18 -9 21 12 -7 -125 -29 -146 -8 -7 -9 12 -1 43 22 91 -46 38 -186 -145 -149
-196 -151 -181 23 -181 145 0 224 55 219 154 -1 34 42 69 56 45 10 -15 18 -12
27 9 7 20 1 32 -17 32 -18 0 -24 12 -17 31 7 17 23 27 36 22 16 -6 21 10 15
49 -5 32 1 58 12 58 11 0 16 20 10 45 -8 36 -5 39 12 15 19 -27 21 -27 22 0 1
27 3 27 20 0 11 -16 20 -23 20 -14 0 9 27 -3 60 -26 33 -23 60 -37 60 -29 0 8
12 4 27 -8 15 -13 33 -17 40 -9 7 7 13 2 13 -11 0 -12 15 -23 33 -23 30 0 29
4 -4 41 -69 76 -170 123 -285 133 -140 12 -143 15 -69 60 32 20 55 48 50 62
-5 15 5 42 23 62 18 19 26 41 19 49 -8 7 1 13 19 13 20 0 29 11 22 28 -6 15 0
34 13 42 17 11 17 19 -3 31 -15 9 -21 23 -13 30 7 8 47 -23 87 -68 65 -73 174
-121 137 -61 -9 13 0 19 22 15 55 -11 60 -57 6 -57 -26 0 -38 -7 -27 -15 11
-8 23 -33 27 -55 6 -40 6 -40 -25 0 -17 22 -31 32 -31 22 -2 -50 64 -89 131
-78 78 13 79 11 38 -67 -28 -53 -27 -57 11 -63 25 -4 38 -20 35 -40 -4 -22 7
-33 28 -31 18 1 38 -10 44 -25 6 -16 1 -28 -12 -28 -12 0 -17 -6 -10 -13 7 -7
-18 -40 -55 -75 -64 -59 -123 -174 -73 -143 12 7 23 33 24 57 0 24 6 33 11 19
15 -38 47 -9 34 31 -9 29 -8 29 11 4 18 -26 25 -25 50 10 15 22 61 76 100 120
40 44 72 87 72 95 0 8 18 15 41 15 49 0 36 -31 -83 -187 -82 -109 -103 -162
-41 -106 20 18 52 33 71 33 19 0 29 9 22 20 -7 11 -3 21 9 23 71 8 102 32 88
68 -7 18 1 29 23 29 22 0 30 -10 23 -30 -10 -25 -5 -27 27 -10 22 12 40 15 40
7 0 -8 11 -4 24 9 18 18 15 31 -15 54 -47 37 72 24 181 -19 l59 -24 -51 -51
c-51 -51 -94 -128 -60 -107 27 17 42 -41 16 -67 -12 -12 -15 -22 -7 -22 25 0
79 61 66 73 -6 7 9 29 33 49 30 25 35 37 16 37 -16 1 -45 -14 -65 -32 -21 -18
-37 -24 -37 -13 0 31 40 58 128 86 76 25 77 26 33 50 -45 24 -45 24 19 37 105
21 127 -10 59 -83 -23 -25 -36 -53 -29 -64 7 -11 3 -20 -8 -20 -19 0 -122
-158 -122 -187 0 -7 21 -13 46 -13 45 0 174 106 174 142 0 10 10 18 22 18 13
0 -1 -31 -30 -69 -28 -37 -52 -73 -52 -80 0 -24 59 -9 75 19 19 34 158 110
173 95 5 -5 -8 -28 -29 -51 -62 -66 -49 -74 121 -74 l160 0 -64 129 c-54 111
-84 143 -205 226 -139 95 -224 138 -791 393 -317 143 -331 155 -242 201 138
72 174 325 85 598 -24 75 -39 156 -33 180 10 34 8 37 -8 13 -12 -16 -22 -21
-22 -10 0 11 -20 52 -43 90 -24 39 -46 93 -49 120 -3 28 -12 84 -19 125 -8 45
-5 75 7 75 11 0 26 -33 34 -74 10 -54 18 -67 30 -45 9 16 9 70 -1 119 -24 124
-23 284 2 230 37 -83 -8 122 -63 287 -163 483 -527 904 -723 838 -30 -10 -55
-27 -55 -38 0 -11 8 -14 18 -8 11 6 32 -2 49 -19 17 -16 39 -30 51 -30 11 0
30 -18 42 -40 28 -53 -12 -70 -122 -52 -56 9 -93 4 -123 -18 -24 -16 -58 -30
-74 -30 -17 1 3 21 45 45 61 35 74 53 65 88 -6 25 0 48 14 54 14 6 -13 6 -60
-1 -47 -6 -85 -3 -85 6 1 35 35 71 62 67 15 -2 42 -3 58 -1 72 6 -27 35 -125
36 -58 1 -80 -3 -50 -8 30 -5 55 -17 55 -28 0 -11 -25 -15 -55 -10 -30 5 -73
10 -95 11 -33 1 -35 5 -10 21 25 16 23 19 -10 19 -22 0 -53 -8 -70 -19z m91
-73 c28 -11 22 -20 -33 -49 -65 -35 -66 -36 -18 -39 28 -1 -16 -19 -97 -39
-157 -40 -162 -42 -252 -96 -51 -32 -100 -93 -143 -179 -7 -14 -25 -25 -41
-25 -70 0 98 210 279 349 57 43 128 68 257 89 8 1 29 -4 48 -11z m379 -325
c153 -60 263 -181 186 -207 -17 -5 -14 -22 10 -56 l34 -48 0 69 c0 146 63 19
72 -146 5 -83 22 -184 39 -223 33 -79 22 -85 -79 -43 -41 17 -110 25 -175 20
-59 -5 -127 -9 -152 -10 -25 -1 -45 -15 -45 -30 0 -15 -13 -28 -30 -28 -16 0
-30 -7 -30 -16 0 -8 -19 -17 -42 -19 -55 -4 -66 -16 -50 -56 7 -18 25 -28 40
-23 52 20 12 -56 -48 -90 -41 -23 -60 -26 -67 -9 -6 12 -11 7 -11 -12 -1 -19
-11 -35 -22 -35 -11 0 -18 -8 -15 -18 17 -64 -94 -176 -208 -210 l-119 -35
-77 67 c-43 36 -78 77 -79 91 -2 29 -42 35 -42 6 0 -109 210 -208 321 -150 69
35 81 23 14 -15 -25 -13 -87 -29 -139 -35 -76 -9 -91 -17 -77 -40 16 -25 38
-24 168 6 167 40 184 54 269 224 108 215 200 224 175 17 -12 -94 -9 -106 28
-118 22 -7 41 -24 41 -39 0 -14 14 -37 30 -51 17 -14 30 -42 30 -63 0 -22 25
-60 55 -87 44 -37 50 -52 30 -72 -43 -45 -131 18 -118 84 12 60 -52 95 -101
55 -14 -12 -26 -16 -26 -9 0 7 -17 4 -38 -7 -28 -15 -44 -12 -63 10 -31 38
-109 30 -109 -11 0 -19 19 -30 50 -30 28 0 61 -7 75 -16 38 -25 30 -58 -11
-45 -20 6 -73 -7 -119 -29 -46 -22 -102 -40 -125 -40 -64 0 -140 -88 -140
-161 0 -61 2 -63 45 -34 47 30 186 65 230 57 140 -23 383 -32 421 -15 33 15
58 14 82 -1 53 -33 88 32 51 96 -51 90 -125 253 -149 331 -13 42 -31 103 -41
136 -14 44 -11 67 11 91 17 18 23 40 15 48 -8 8 1 24 21 35 19 11 29 30 21 43
-9 17 -4 16 14 -1 37 -34 112 -31 126 5 7 17 22 30 35 30 16 0 14 -11 -5 -33
-24 -31 -21 -33 38 -21 56 11 65 8 65 -28 0 -22 9 -35 20 -28 57 35 -49 176
-125 168 -25 -3 -66 1 -91 10 -33 11 -70 0 -136 -38 -99 -58 -123 -56 -89 8
12 23 16 42 7 42 -8 0 5 14 30 31 49 35 418 35 492 0 32 -15 37 -12 26 15 -7
18 -4 38 7 45 12 7 11 26 -2 51 -11 21 -14 50 -6 63 22 35 51 -96 65 -290 1
-19 16 -35 32 -35 39 0 38 -20 -1 -48 -21 -15 -32 -62 -35 -147 -2 -69 -11
-125 -19 -125 -8 0 -15 -11 -15 -25 -1 -14 -27 -79 -59 -144 -32 -66 -54 -126
-48 -135 5 -9 1 -16 -9 -16 -20 0 -110 -192 -110 -234 -1 -13 -7 -20 -14 -16
-8 5 -25 -14 -37 -42 -13 -28 -31 -46 -40 -40 -32 20 -97 -45 -65 -65 22 -15
19 -23 -15 -41 -25 -14 -37 -35 -30 -52 6 -17 2 -30 -9 -30 -11 0 -25 11 -31
25 -5 14 -11 9 -11 -12 -1 -24 -12 -33 -31 -26 -17 6 -35 3 -42 -8 -15 -24
-103 -25 -118 0 -6 10 -4 23 5 29 10 6 13 37 9 69 -5 32 1 64 13 72 12 7 22
37 22 66 0 34 20 71 55 100 l55 46 -77 -30 c-43 -17 -115 -31 -159 -31 -64 0
-77 -5 -58 -24 36 -36 29 -76 -15 -76 -21 0 -45 -10 -52 -22 -17 -28 28 -58
64 -44 34 13 38 -135 6 -167 -58 -58 -210 38 -291 183 -12 22 -27 36 -32 30
-15 -15 -76 41 -74 67 1 15 5 14 11 -2 6 -14 20 -25 31 -25 13 0 11 12 -4 30
-14 17 -35 30 -48 30 -35 0 -89 131 -69 167 11 19 7 40 -10 57 -47 47 -81 123
-58 131 27 9 -85 217 -113 210 -68 -15 -73 508 -4 531 17 6 22 0 14 -13 -8
-13 -5 -23 7 -23 11 0 21 32 21 71 0 108 82 276 101 209 l15 -50 2 53 c10 259
243 434 607 455 19 1 34 9 33 17 -10 59 2 69 47 42 25 -16 99 -49 165 -75z
m297 32 c7 7 13 2 13 -11 0 -12 16 -23 35 -23 26 -1 28 -5 9 -17 -15 -9 -20
-32 -12 -55 12 -36 11 -36 -16 2 -46 62 -104 164 -71 125 16 -19 35 -29 42
-21z m153 -362 c44 -122 81 -193 100 -194 23 -2 22 -5 -4 -12 -28 -7 -30 -18
-12 -68 11 -33 17 -64 12 -69 -9 -9 -105 273 -128 375 -7 30 -22 53 -35 50
-13 -2 -26 26 -29 63 -11 109 22 59 96 -145z m-1461 22 c-10 -53 -32 -116 -49
-139 l-30 -44 0 45 c0 25 13 77 30 117 16 39 25 78 20 87 -6 9 -4 32 3 50 26
67 44 -17 26 -116z m-301 -1270 c2 -141 -16 -146 -78 -23 -51 99 -50 129 5
206 l45 63 12 -60 c8 -33 14 -117 16 -186z m1144 58 c22 -20 76 -43 119 -50
44 -7 79 -22 79 -35 0 -22 -57 -16 -128 14 -26 11 -34 9 -25 -6 9 -15 -14 -19
-72 -14 -47 4 -92 7 -102 8 -14 1 66 117 83 120 3 1 24 -16 46 -37z m-1062
-180 c0 -32 7 -62 15 -65 55 -25 174 -351 144 -397 -14 -24 -19 -19 -19 20 0
35 -6 42 -18 23 -23 -37 -42 16 -42 119 0 43 -9 78 -19 78 -11 0 -14 14 -8 31
7 17 -5 45 -28 65 -43 38 -80 184 -46 184 12 0 21 -26 21 -58z m2114 -247 c-4
-36 -8 -6 -8 65 0 72 4 101 8 65 5 -36 5 -94 0 -130z m-2049 -154 c20 -58 33
-116 28 -128 -10 -26 -54 75 -62 142 -3 24 -18 59 -33 78 -24 29 -24 32 1 24
16 -5 46 -58 66 -116z m1955 -265 c0 -28 46 -69 96 -85 47 -15 57 -41 24 -61
-11 -7 -20 -3 -20 7 0 11 -20 27 -45 34 -25 8 -52 24 -62 37 -11 16 -19 15
-26 -3 -6 -14 -24 -25 -40 -25 -16 0 -24 -9 -17 -20 7 -11 -1 -15 -17 -8 -25
9 -26 19 -2 64 15 30 32 71 38 91 12 39 71 13 71 -31z m350 -196 c57 -15 58
-16 15 -30 -75 -24 -50 -47 38 -35 60 8 79 5 69 -12 -10 -16 10 -23 65 -23 77
0 107 -24 89 -72 -10 -28 -132 -6 -282 50 -97 36 -115 37 -199 11 -51 -15 -96
-24 -101 -20 -4 4 11 13 34 20 23 8 60 40 83 72 43 61 77 68 189 39z m-2070
-118 c0 -10 6 -34 13 -54 9 -22 6 -30 -8 -21 -12 7 -25 2 -30 -11 -5 -15 -12
-11 -21 10 -7 19 -4 34 7 34 10 0 19 10 19 21 0 12 -10 15 -23 7 -14 -9 -18
-5 -9 9 17 27 52 31 52 5z m2675 -165 c-3 -13 18 -30 45 -38 47 -14 46 -15
-15 -17 -36 -1 -65 7 -65 19 0 14 -13 14 -40 -1 -31 -17 -37 -15 -28 8 10 26
39 41 93 50 8 1 13 -8 10 -21z m-2547 -60 c16 -80 15 -80 -73 -50 l-74 25 44
44 c60 60 88 55 103 -19z m851 -206 c-28 -29 -34 -8 -23 79 l11 80 15 -70 c9
-39 7 -78 -3 -89z"/>
<path d="M2691 2888 c-32 -23 -34 -32 -12 -53 21 -20 24 -20 13 0 -10 16 0 25
27 25 22 0 41 8 41 19 0 34 -30 38 -69 9z"/>
<path d="M2740 2795 c-1 -37 -4 -39 -20 -15 -18 27 -22 27 -40 0 -30 -46 -24
-58 22 -50 40 8 40 6 9 -41 -18 -28 -27 -59 -20 -70 18 -29 49 -2 49 43 0 22
8 35 18 29 10 -6 17 25 15 69 -3 83 -33 114 -33 35z"/>
<path d="M2370 2500 c-158 -34 -189 -45 -212 -73 -13 -15 -17 -34 -10 -42 8
-8 20 -5 28 6 37 51 419 9 480 -53 l58 -59 -4 72 c-9 133 -141 191 -340 149z"/>
<path d="M2285 2331 c-86 -39 -94 -119 -10 -99 30 8 65 22 78 31 14 12 27 7
34 -12 7 -18 39 -32 77 -34 61 -3 62 -4 11 -11 -30 -5 -55 -16 -55 -26 0 -9
-16 -21 -35 -26 -38 -10 59 -21 124 -14 37 4 151 109 151 140 0 63 -268 100
-375 51z"/>
<path d="M3436 2336 c14 -14 24 -80 24 -155 1 -92 6 -122 20 -101 49 76 8 280
-55 280 -7 0 -2 -11 11 -24z"/>
<path d="M2087 2220 c-27 -95 -12 -174 25 -136 21 20 23 50 11 116 l-17 90
-19 -70z"/>
<path d="M3060 1971 c0 -43 205 -162 242 -140 44 27 13 65 -63 77 -53 8 -76
21 -67 35 9 14 5 18 -8 9 -13 -8 -41 -4 -64 8 -22 12 -40 17 -40 11z"/>
<path d="M1925 3267 c-36 -17 -97 -77 -136 -132 -40 -54 -62 -93 -50 -86 27
17 27 -7 -2 -88 -14 -41 -28 -56 -37 -41 -8 13 -15 -24 -15 -83 -1 -86 2 -95
14 -46 53 224 144 386 264 473 59 43 46 44 -38 3z"/>
<path d="M3861 1975 c0 -30 -10 -55 -20 -55 -28 0 37 -105 90 -145 l45 -34
-41 105 c-78 200 -72 190 -74 129z"/>
<path d="M2716 806 c-52 -13 -4 -106 56 -106 25 0 51 -9 58 -20 7 -11 2 -20
-10 -20 -12 0 -17 -8 -11 -18 11 -18 -56 -47 -112 -47 -28 0 -30 -10 -16 -49
11 -27 12 -44 4 -39 -28 17 -90 -44 -78 -77 7 -17 2 -48 -11 -69 -35 -56 15
-115 62 -74 18 15 42 24 54 20 12 -5 33 5 47 22 14 17 19 31 10 31 -9 0 0 12
21 27 20 15 40 42 43 60 12 59 20 82 47 139 25 50 23 58 -17 86 -24 17 -38 41
-30 53 9 14 2 17 -18 10 -18 -7 -36 0 -43 16 -6 16 -1 29 10 29 11 0 15 9 8
20 -13 21 -18 21 -74 6z"/>
<path d="M2360 528 c0 -46 69 -188 88 -182 44 15 33 69 -27 133 -34 36 -61 58
-61 49z"/>
<path d="M4313 303 c-20 -21 -39 -81 -43 -135 -6 -71 -20 -105 -54 -132 l-46
-35 56 -1 c60 0 93 24 131 94 16 30 16 45 1 50 -13 4 -8 31 15 71 49 85 1 155
-60 88z"/>
<path d="M4041 168 c-71 -37 -131 -81 -133 -98 -5 -36 25 -40 39 -5 7 19 15
18 31 -5 16 -22 21 -23 22 -4 0 15 8 21 18 15 11 -6 33 3 50 20 18 18 32 26
32 19 0 -7 23 14 50 46 88 104 72 106 -109 12z"/>
<path d="M1922 132 c-49 -59 -47 -132 4 -132 40 0 46 9 43 70 -3 84 -15 101
-47 62z"/>
<path d="M1672 68 c-21 -55 -13 -68 40 -68 39 0 49 8 40 32 -7 17 -12 40 -12
50 0 31 -55 20 -68 -14z"/>
</g>
</svg>
